<svg width="142" height="154" viewBox="0 0 142 154" fill="none" xmlns="http://www.w3.org/2000/svg">
<g opacity="0.5" clip-path="url(#clip0_1081_25225)">
<path d="M72.765 131.858C104.876 131.858 130.869 106.01 130.869 74.0524C130.869 42.0946 104.904 16.2188 72.765 16.2188C40.7671 16.2188 14.6895 42.0667 14.6895 74.0245C14.6895 105.982 40.6541 131.858 72.765 131.858Z" fill="#F1F3F9" stroke="#D6DCE8" stroke-width="2" stroke-miterlimit="10" stroke-linejoin="round"/>
<path d="M136.027 140.352C147.952 128.019 139.297 107.099 121.903 107.099C113.981 107.099 107.186 111.773 104.057 118.502C101.294 118.671 98.7286 119.544 93.1748 123.204L92.2728 103.382H85.4502L84.8864 115.715C82.6591 113.997 80.5165 114.194 79.0224 114.307L79.3889 114.25L78.7971 102.059H67.4358L66.7306 116.559C64.8136 115.095 64.2219 115.799 63.6297 115.799C62.4738 115.799 61.3742 116.109 60.4438 116.616L59.8237 103.354H53.0014L52.5219 113.856C49.421 112.026 45.7842 110.956 41.9219 110.956C37.2419 110.956 32.9286 112.505 29.4328 115.095C14.2373 107.887 -2.45237 121.881 2.05835 138.099L12.9686 145.082C12.7149 145.251 12.4612 145.42 12.2075 145.589L12.9686 145.082C9.44467 148.376 19.9039 138.859 22.7513 140.155C22.9768 140.661 23.2024 141.14 23.4561 141.619L22.9768 140.295C23.2869 140.549 23.4561 140.971 23.4561 141.619C23.4561 141.619 23.4561 141.647 23.4843 141.647C20.6651 141.788 18.015 142.464 15.5905 143.618L24.6684 141.985C32.4211 143.646 74.9348 149.474 75.0191 150.206L74.399 149.052C74.6529 149.08 74.9348 149.108 75.2167 149.136C76.5979 151.164 78.6279 152.741 80.996 153.501C79.079 152.515 77.4719 151.051 76.316 149.249C85.6478 150.15 97.7986 149.531 102.253 149.052C106.341 149.784 110.626 148.855 114.122 146.321C114.855 145.786 115.559 145.167 116.208 144.491C120.521 144.463 128.443 145.701 128.33 143.787L136.111 145.167C133.912 144.153 131.544 143.477 129.007 143.252L136.027 140.352ZM113.501 145.194C113.529 145.11 113.558 145.054 113.642 144.969L113.501 145.194Z" fill="white"/>
<path d="M60.4434 116.615L59.8233 103.381H53.0006L52.5215 113.855" fill="white"/>
<path d="M60.4434 116.615L59.8233 103.381H53.0006L52.5215 113.855" stroke="#AAB2C5" stroke-width="2" stroke-miterlimit="10" stroke-linecap="round" stroke-linejoin="round"/>
<path d="M93.2035 123.71L92.2732 103.381H85.4505L84.8867 115.742" fill="white"/>
<path d="M93.2035 123.71L92.2732 103.381H85.4505L84.8867 115.742" stroke="#AAB2C5" stroke-width="2" stroke-miterlimit="10" stroke-linecap="round" stroke-linejoin="round"/>
<path d="M79.3887 114.222L78.7683 102.059H67.4352L66.7305 116.362L66.7588 116.587" fill="white"/>
<path d="M79.3887 114.222L78.7683 102.059H67.4352L66.7305 116.362L66.7588 116.587" stroke="#AAB2C5" stroke-width="2" stroke-miterlimit="10" stroke-linecap="round" stroke-linejoin="round"/>
<path d="M18.043 134.889C19.0297 134.551 20.0728 134.326 21.1723 134.213" stroke="#AAB2C5" stroke-width="2" stroke-miterlimit="10" stroke-linecap="round" stroke-linejoin="round"/>
<path d="M77.5847 97.7227H68.2813L66.3643 99.0179C65.9694 99.2995 65.7441 99.7218 65.7441 100.2V101.467H80.4037V100.257C80.4037 99.7497 80.1501 99.2995 79.7273 99.0459L77.5847 97.7227Z" fill="white"/>
<path d="M81.0248 102.057C81.0248 102.367 80.7709 102.62 80.461 102.62H65.5755C65.2653 102.62 65.0117 102.367 65.0117 102.057C65.0117 101.747 65.2653 101.494 65.5755 101.494H80.461C80.7709 101.494 81.0248 101.747 81.0248 102.057Z" fill="#69768C"/>
<path d="M48.6315 19.1922H48.4059C48.0394 19.1922 47.7575 18.9106 47.7575 18.5446V18.3193C47.7575 18.0377 47.5319 17.8125 47.25 17.8125C46.9681 17.8125 46.7425 18.0377 46.7425 18.3193V18.5446C46.7425 18.9106 46.4606 19.1922 46.0944 19.1922H45.8688C45.5869 19.1922 45.3613 19.4174 45.3613 19.699C45.3613 19.9806 45.5869 20.2058 45.8688 20.2058H46.0944C46.4606 20.2058 46.7425 20.4874 46.7425 20.8534V21.0787C46.7425 21.3602 46.9681 21.5855 47.25 21.5855C47.5319 21.5855 47.7575 21.3602 47.7575 21.0787V20.8534C47.7575 20.4874 48.0394 20.2058 48.4059 20.2058H48.6315C48.9134 20.2058 49.139 19.9806 49.139 19.699C49.139 19.4456 48.9134 19.1922 48.6315 19.1922Z" fill="#D6DDE8"/>
<path d="M34.2542 10.2111H34.0568C33.7749 10.2111 33.5212 9.98578 33.5212 9.67608V9.47896C33.5212 9.25372 33.3238 9.05664 33.0983 9.05664C32.8727 9.05664 32.6754 9.25372 32.6754 9.47896V9.67608C32.6754 9.95763 32.4499 10.2111 32.1397 10.2111H31.9424C31.7169 10.2111 31.5195 10.4081 31.5195 10.6334C31.5195 10.8587 31.7169 11.0557 31.9424 11.0557H32.1397C32.4217 11.0557 32.6754 11.281 32.6754 11.5907V11.7878C32.6754 12.0131 32.8727 12.2102 33.0983 12.2102C33.3238 12.2102 33.5212 12.0131 33.5212 11.7878V11.5907C33.5212 11.3092 33.7467 11.0557 34.0568 11.0557H34.2542C34.4797 11.0557 34.677 10.8587 34.677 10.6334C34.677 10.4081 34.4797 10.2111 34.2542 10.2111Z" fill="#D6DDE8"/>
<path d="M16.7463 69.7619H16.549C16.2671 69.7619 16.0134 69.5366 16.0134 69.2268V69.0297C16.0134 68.8044 15.816 68.6074 15.5905 68.6074C15.365 68.6074 15.1676 68.8044 15.1676 69.0297V69.2268C15.1676 69.5083 14.9421 69.7619 14.6319 69.7619H14.4346C14.209 69.7619 14.0117 69.9589 14.0117 70.1842C14.0117 70.4095 14.209 70.6065 14.4346 70.6065H14.6319C14.9139 70.6065 15.1676 70.8319 15.1676 71.1417V71.3387C15.1676 71.564 15.365 71.761 15.5905 71.761C15.816 71.761 16.0134 71.564 16.0134 71.3387V71.1417C16.0134 70.8602 16.2389 70.6065 16.549 70.6065H16.7463C16.9719 70.6065 17.1692 70.4095 17.1692 70.1842C17.1692 69.931 16.9719 69.7619 16.7463 69.7619Z" fill="#D6DDE8"/>
<path d="M63.1507 1.79228H62.9535C62.6716 1.79228 62.4177 1.56703 62.4177 1.25731V1.08836C62.4177 0.863111 62.2204 0.666016 61.9948 0.666016C61.7692 0.666016 61.5719 0.863111 61.5719 1.08836V1.28546C61.5719 1.56703 61.3464 1.82044 61.0365 1.82044H60.8389C60.6136 1.82044 60.416 2.01753 60.416 2.24279C60.416 2.46804 60.6136 2.66514 60.8389 2.66514H61.0365C61.3184 2.66514 61.5719 2.89039 61.5719 3.20011V3.39721C61.5719 3.62246 61.7692 3.81956 61.9948 3.81956C62.2204 3.81956 62.4177 3.62246 62.4177 3.39721V3.1438C62.4177 2.86223 62.6432 2.60882 62.9535 2.60882H63.1507C63.3763 2.60882 63.5736 2.41173 63.5736 2.18647C63.5736 1.98938 63.4043 1.79228 63.1507 1.79228Z" fill="#D6DDE8"/>
<path d="M137.211 35.1857H137.014C136.732 35.1857 136.478 34.9604 136.478 34.6507V34.4536C136.478 34.2283 136.281 34.0312 136.055 34.0312C135.83 34.0312 135.632 34.2283 135.632 34.4536V34.6507C135.632 34.9322 135.407 35.1857 135.097 35.1857H134.899C134.674 35.1857 134.477 35.3827 134.477 35.6078C134.477 35.8332 134.674 36.0305 134.899 36.0305H135.097C135.379 36.0305 135.632 36.2555 135.632 36.5653V36.7623C135.632 36.9876 135.83 37.1847 136.055 37.1847C136.281 37.1847 136.478 36.9876 136.478 36.7623V36.5653C136.478 36.2838 136.704 36.0305 137.014 36.0305H137.211C137.437 36.0305 137.634 35.8332 137.634 35.6078C137.634 35.3827 137.437 35.1857 137.211 35.1857Z" fill="#D6DDE8"/>
<path d="M121.565 96.2853H121.368C121.086 96.2853 120.832 96.06 120.832 95.7502V95.5532C120.832 95.3279 120.634 95.1309 120.409 95.1309C120.183 95.1309 119.986 95.3279 119.986 95.5532V95.7502C119.986 96.0321 119.76 96.2853 119.451 96.2853H119.31C119.084 96.2853 118.887 96.4824 118.887 96.7077C118.887 96.933 119.084 97.13 119.31 97.13H119.507C119.789 97.13 120.042 97.3553 120.042 97.6651V97.8622C120.042 98.0875 120.24 98.2845 120.465 98.2845C120.691 98.2845 120.888 98.0875 120.888 97.8622V97.6651C120.888 97.3836 121.114 97.13 121.424 97.13H121.621C121.847 97.13 122.044 96.933 122.044 96.7077C121.988 96.4824 121.79 96.2853 121.565 96.2853Z" fill="#D6DDE8"/>
<path d="M14.8861 100.565H14.7169C14.435 100.565 14.1813 100.339 14.1813 100.03V99.8325C14.1813 99.6072 13.984 99.4102 13.7584 99.4102C13.5329 99.4102 13.3356 99.6072 13.3356 99.8325V100.03C13.3356 100.311 13.11 100.565 12.7999 100.565H12.6025C12.377 100.565 12.1797 100.762 12.1797 100.987C12.1797 101.212 12.377 101.409 12.6025 101.409H12.7999C13.0818 101.409 13.3356 101.635 13.3356 101.944V102.141C13.3356 102.367 13.5329 102.564 13.7584 102.564C13.984 102.564 14.1813 102.367 14.1813 102.141V101.944C14.1813 101.663 14.4068 101.409 14.7169 101.409H14.9143C15.1398 101.409 15.3372 101.212 15.3372 100.987C15.309 100.762 15.1116 100.565 14.8861 100.565Z" fill="#D6DDE8"/>
<path d="M103.577 50.4189H103.352C102.985 50.4189 102.703 50.1373 102.703 49.7712V49.5459C102.703 49.2644 102.478 49.0391 102.196 49.0391C101.914 49.0391 101.688 49.2644 101.688 49.5459V49.7712C101.688 50.1373 101.406 50.4189 101.04 50.4189H100.814C100.532 50.4189 100.307 50.6442 100.307 50.9257C100.307 51.2073 100.532 51.4326 100.814 51.4326H101.04C101.406 51.4326 101.688 51.7141 101.688 52.0802V52.3052C101.688 52.5867 101.914 52.812 102.196 52.812C102.478 52.812 102.703 52.5867 102.703 52.3052V52.0802C102.703 51.7141 102.985 51.4326 103.352 51.4326H103.577C103.859 51.4326 104.085 51.2073 104.085 50.9257C104.085 50.6442 103.859 50.4189 103.577 50.4189Z" fill="#D6DDE8"/>
<path d="M109.978 89.19H109.753C109.386 89.19 109.104 88.9084 109.104 88.5424V88.3174C109.104 88.0359 108.879 87.8105 108.597 87.8105C108.315 87.8105 108.089 88.0359 108.089 88.3174V88.5424C108.089 88.9084 107.807 89.19 107.441 89.19H107.187C106.905 89.19 106.68 89.4153 106.68 89.6969C106.68 89.9784 106.905 90.2037 107.187 90.2037H107.413C107.779 90.2037 108.061 90.4853 108.061 90.8513V91.0766C108.061 91.3582 108.287 91.5835 108.569 91.5835C108.851 91.5835 109.076 91.3582 109.076 91.0766V90.8513C109.076 90.4853 109.358 90.2037 109.725 90.2037H109.95C110.232 90.2037 110.457 89.9784 110.457 89.6969C110.486 89.4153 110.26 89.19 109.978 89.19Z" fill="#D6DDE8"/>
<path d="M134.674 49.6015H134.533C134.307 49.6015 134.138 49.4328 134.138 49.2075V49.0946C134.138 48.9259 133.997 48.7852 133.827 48.7852C133.659 48.7852 133.518 48.9259 133.518 49.0946V49.2354C133.518 49.4607 133.348 49.6298 133.123 49.6298H132.982C132.813 49.6298 132.672 49.7706 132.672 49.9396C132.672 50.1084 132.813 50.2491 132.982 50.2491H133.123C133.348 50.2491 133.518 50.4182 133.518 50.6435V50.7843C133.518 50.953 133.659 51.0938 133.827 51.0938C133.997 51.0938 134.138 50.953 134.138 50.7843V50.6435C134.138 50.4182 134.307 50.2491 134.533 50.2491H134.674C134.842 50.2491 134.983 50.1084 134.983 49.9396C134.983 49.7423 134.842 49.6015 134.674 49.6015Z" fill="#D6DDE8"/>
<path d="M121.48 56.5838H121.367C121.198 56.5838 121.057 56.443 121.057 56.2743V56.1615C121.057 56.0207 120.944 55.9082 120.803 55.9082C120.662 55.9082 120.549 56.0207 120.549 56.1615V56.2743C120.549 56.443 120.409 56.5838 120.24 56.5838H120.127C119.986 56.5838 119.873 56.6966 119.873 56.8374C119.873 56.9782 119.986 57.0906 120.127 57.0906H120.24C120.409 57.0906 120.549 57.2314 120.549 57.4005V57.513C120.549 57.6537 120.662 57.7666 120.803 57.7666C120.944 57.7666 121.057 57.6537 121.057 57.513V57.4005C121.057 57.2314 121.198 57.0906 121.367 57.0906H121.48C121.621 57.0906 121.734 56.9782 121.734 56.8374C121.734 56.6966 121.621 56.5838 121.48 56.5838Z" fill="#D6DDE8"/>
<path d="M94.472 20.4043H94.3594C94.1901 20.4043 94.0491 20.2635 94.0491 20.0945V19.9819C94.0491 19.8411 93.9365 19.7285 93.7956 19.7285C93.6546 19.7285 93.5417 19.8411 93.5417 19.9819V20.0945C93.5417 20.2635 93.4007 20.4043 93.2318 20.4043H93.1188C92.9778 20.4043 92.8652 20.5169 92.8652 20.6577C92.8652 20.7985 92.9778 20.9111 93.1188 20.9111H93.2318C93.4007 20.9111 93.5417 21.0519 93.5417 21.2208V21.3334C93.5417 21.4742 93.6546 21.5868 93.7956 21.5868C93.9365 21.5868 94.0491 21.4742 94.0491 21.3334V21.2208C94.0491 21.0519 94.1901 20.9111 94.3594 20.9111H94.472C94.613 20.9111 94.7259 20.7985 94.7259 20.6577C94.6976 20.5169 94.613 20.4043 94.472 20.4043Z" fill="#D6DDE8"/>
<path d="M122.41 19.4746H122.297C122.128 19.4746 121.987 19.3338 121.987 19.1648V19.0522C121.987 18.9114 121.874 18.7988 121.733 18.7988C121.592 18.7988 121.48 18.9114 121.48 19.0522V19.1648C121.48 19.3338 121.339 19.4746 121.169 19.4746H121.056C120.915 19.4746 120.803 19.5872 120.803 19.728C120.803 19.8688 120.915 19.9814 121.056 19.9814H121.169C121.339 19.9814 121.48 20.1222 121.48 20.2911V20.4038C121.48 20.5445 121.592 20.6571 121.733 20.6571C121.874 20.6571 121.987 20.5445 121.987 20.4038V20.2911C121.987 20.1222 122.128 19.9814 122.297 19.9814H122.41C122.551 19.9814 122.663 19.8688 122.663 19.728C122.663 19.5872 122.551 19.4746 122.41 19.4746Z" fill="#D6DDE8"/>
<path d="M9.24806 42.9009H9.10711C8.88155 42.9009 8.68422 42.7039 8.68422 42.4786V42.3378C8.68422 42.1408 8.54324 42 8.34591 42C8.14857 42 8.00759 42.1408 8.00759 42.3378V42.4786C8.00759 42.7039 7.81026 42.9009 7.58474 42.9009H7.44375C7.24642 42.9009 7.10547 43.0417 7.10547 43.239C7.10547 43.436 7.24642 43.5768 7.44375 43.5768H7.58474C7.81026 43.5768 8.00759 43.7738 8.00759 43.9991V44.1399C8.00759 44.3369 8.14857 44.4777 8.34591 44.4777C8.54324 44.4777 8.68422 44.3369 8.68422 44.1399V43.9991C8.68422 43.7738 8.88155 43.5768 9.10711 43.5768H9.24806C9.44539 43.5768 9.58634 43.436 9.58634 43.239C9.58634 43.07 9.4172 42.9009 9.24806 42.9009Z" fill="#D6DDE8"/>
<path d="M36.6779 83.4185H36.5369C36.3113 83.4185 36.1141 83.2214 36.1141 82.9961V82.8554C36.1141 82.6584 35.9731 82.5176 35.7755 82.5176C35.5782 82.5176 35.4373 82.6584 35.4373 82.8554V82.9961C35.4373 83.2214 35.24 83.4185 35.0144 83.4185H34.8734C34.6761 83.4185 34.5352 83.5592 34.5352 83.7566C34.5352 83.9536 34.6761 84.0944 34.8734 84.0944H35.0144C35.24 84.0944 35.4373 84.2914 35.4373 84.5167V84.6575C35.4373 84.8545 35.5782 84.9953 35.7755 84.9953C35.9731 84.9953 36.1141 84.8545 36.1141 84.6575V84.5167C36.1141 84.2914 36.3113 84.0944 36.5369 84.0944H36.6779C36.8751 84.0944 37.0161 83.9536 37.0161 83.7566C37.0161 83.5592 36.8468 83.4185 36.6779 83.4185Z" fill="#D6DDE8"/>
<path d="M140.143 97.4399H140.002C139.776 97.4399 139.579 97.2429 139.579 97.0176V96.8769C139.579 96.6798 139.438 96.5391 139.241 96.5391C139.043 96.5391 138.902 96.6798 138.902 96.8769V97.0176C138.902 97.2429 138.705 97.4399 138.479 97.4399H138.338C138.141 97.4399 138 97.5807 138 97.7777C138 97.9747 138.141 98.1155 138.338 98.1155H138.479C138.705 98.1155 138.902 98.3129 138.902 98.5382V98.679C138.902 98.876 139.043 99.0167 139.241 99.0167C139.438 99.0167 139.579 98.876 139.579 98.679V98.5382C139.579 98.3129 139.776 98.1155 140.002 98.1155H140.143C140.34 98.1155 140.481 97.9747 140.481 97.7777C140.481 97.609 140.312 97.4399 140.143 97.4399Z" fill="#D6DDE8"/>
<path d="M6.45688 24.9645H6.34412C6.14679 24.9645 6.00584 24.8237 6.00584 24.6266V24.514C6.00584 24.3732 5.89304 24.2324 5.7239 24.2324C5.58295 24.2324 5.442 24.345 5.442 24.514V24.6266C5.442 24.8237 5.30101 24.9645 5.10368 24.9645H4.99092C4.84994 24.9645 4.70898 25.0771 4.70898 25.2461C4.70898 25.3868 4.82174 25.5276 4.99092 25.5276H5.13187C5.3292 25.5276 5.47019 25.6684 5.47019 25.8655V25.9782C5.47019 26.1189 5.58295 26.2597 5.75209 26.2597C5.89304 26.2597 6.03403 26.1471 6.03403 25.9782V25.8655C6.03403 25.6684 6.17498 25.5276 6.37231 25.5276H6.48507C6.62605 25.5276 6.76701 25.415 6.76701 25.2461C6.73882 25.0771 6.59786 24.9645 6.45688 24.9645Z" fill="#D6DDE8"/>
<path d="M17.0838 12.2653H16.9711C16.7737 12.2653 16.6328 12.1245 16.6328 11.9274V11.8148C16.6328 11.674 16.52 11.5332 16.3509 11.5332C16.2099 11.5332 16.0689 11.6458 16.0689 11.8148V11.9274C16.0689 12.1245 15.928 12.2653 15.7306 12.2653H15.6179C15.4769 12.2653 15.3359 12.3779 15.3359 12.5468C15.3359 12.6876 15.4487 12.8284 15.6179 12.8284H15.7306C15.928 12.8284 16.0689 12.9692 16.0689 13.1663V13.2789C16.0689 13.4197 16.1817 13.5605 16.3509 13.5605C16.4918 13.5605 16.6328 13.4479 16.6328 13.2789V13.1663C16.6328 12.9692 16.7737 12.8284 16.9711 12.8284H17.0838C17.2248 12.8284 17.3658 12.7158 17.3658 12.5468C17.3658 12.3779 17.253 12.2653 17.0838 12.2653Z" fill="#D6DDE8"/>
<path d="M2.0576 67.4822H1.94483C1.74749 67.4822 1.60653 67.3414 1.60653 67.1444V67.0315C1.60653 66.8908 1.49376 66.75 1.32461 66.75C1.18365 66.75 1.04269 66.8625 1.04269 67.0315V67.1444C1.04269 67.3414 0.901731 67.4822 0.704386 67.4822H0.619809C0.478851 67.4822 0.337891 67.5946 0.337891 67.7637C0.337891 67.9045 0.450658 68.0453 0.619809 68.0453H0.73258C0.929922 68.0453 1.07088 68.186 1.07088 68.383V68.4959C1.07088 68.6367 1.18365 68.7774 1.3528 68.7774C1.49376 68.7774 1.63472 68.6646 1.63472 68.4959V68.383C1.63472 68.186 1.77568 68.0453 1.97303 68.0453H2.08579C2.22676 68.0453 2.36771 67.9324 2.36771 67.7637C2.33952 67.5946 2.22676 67.4822 2.0576 67.4822Z" fill="#D6DDE8"/>
<path d="M43.4434 33.6364H43.3304C43.1331 33.6364 42.9922 33.4956 42.9922 33.2985V33.1858C42.9922 33.0451 42.8796 32.9043 42.7103 32.9043C42.5693 32.9043 42.4284 33.0169 42.4284 33.1858V33.2985C42.4284 33.4956 42.2874 33.6364 42.0902 33.6364H41.9772C41.8363 33.6364 41.6953 33.749 41.6953 33.9179C41.6953 34.0587 41.8083 34.1995 41.9772 34.1995H42.0902C42.2874 34.1995 42.4284 34.3403 42.4284 34.5374V34.65C42.4284 34.7908 42.541 34.9315 42.7103 34.9315C42.8512 34.9315 42.9922 34.8189 42.9922 34.65V34.5374C42.9922 34.3403 43.1331 34.1995 43.3304 34.1995H43.4434C43.5843 34.1995 43.7253 34.0869 43.7253 33.9179C43.7253 33.749 43.5843 33.6364 43.4434 33.6364Z" fill="#D6DDE8"/>
<path d="M35.8611 66.4685H35.7485C35.5512 66.4685 35.4103 66.3277 35.4103 66.1307V66.0179C35.4103 65.8771 35.2973 65.7363 35.128 65.7363C34.9871 65.7363 34.8463 65.8492 34.8463 66.0179V66.1307C34.8463 66.3277 34.7053 66.4685 34.508 66.4685H34.3952C34.2542 66.4685 34.1133 66.581 34.1133 66.75C34.1133 66.8908 34.226 67.0316 34.3952 67.0316H34.508C34.7053 67.0316 34.8463 67.1724 34.8463 67.3694V67.4822C34.8463 67.623 34.959 67.7638 35.128 67.7638C35.2693 67.7638 35.4103 67.6509 35.4103 67.4822V67.3694C35.4103 67.1724 35.5512 67.0316 35.7485 67.0316H35.8611C36.0021 67.0316 36.143 66.9191 36.143 66.75C36.115 66.581 36.0021 66.4685 35.8611 66.4685Z" fill="#D6DDE8"/>
<path d="M84.5202 8.43675C83.6462 8.43675 82.9414 7.73285 82.9414 6.85998C82.9414 5.98711 83.6462 5.2832 84.5202 5.2832C85.3939 5.2832 86.0986 5.98711 86.0986 6.85998C86.0986 7.73285 85.3659 8.43675 84.5202 8.43675ZM84.5202 6.15607C84.1253 6.15607 83.7871 6.46577 83.7871 6.88813C83.7871 7.31049 84.097 7.62019 84.5202 7.62019C84.9147 7.62019 85.2529 7.31049 85.2529 6.88813C85.2529 6.46577 84.9147 6.15607 84.5202 6.15607Z" fill="#D6DDE8"/>
<path d="M29.4323 25.7805C28.5583 25.7805 27.8535 25.0766 27.8535 24.2037C27.8535 23.3309 28.5583 22.627 29.4323 22.627C30.3062 22.627 31.011 23.3309 31.011 24.2037C31.011 25.0766 30.278 25.7805 29.4323 25.7805ZM29.4323 23.4998C29.0376 23.4998 28.6993 23.8096 28.6993 24.2319C28.6993 24.6542 29.0094 24.964 29.4323 24.964C29.8551 24.964 30.1652 24.6542 30.1652 24.2319C30.1652 23.8096 29.8269 23.4998 29.4323 23.4998Z" fill="#D6DDE8"/>
<path d="M97.4036 13.3362C96.7835 13.3362 96.248 12.8294 96.248 12.1818C96.248 11.5342 96.7552 11.0273 97.4036 11.0273C98.0241 11.0273 98.5596 11.5342 98.5596 12.1818C98.5596 12.8294 98.0241 13.3362 97.4036 13.3362ZM97.4036 11.6468C97.1217 11.6468 96.8682 11.872 96.8682 12.1818C96.8682 12.4915 97.0938 12.7167 97.4036 12.7167C97.6855 12.7167 97.9395 12.4915 97.9395 12.1818C97.9395 11.872 97.6855 11.6468 97.4036 11.6468Z" fill="#D6DDE8"/>
<path d="M105.861 104.873C105.241 104.873 104.705 104.367 104.705 103.719C104.705 103.099 105.213 102.564 105.861 102.564C106.481 102.564 107.017 103.071 107.017 103.719C106.989 104.367 106.481 104.873 105.861 104.873ZM105.861 103.212C105.579 103.212 105.325 103.437 105.325 103.747C105.325 104.028 105.551 104.282 105.861 104.282C106.143 104.282 106.396 104.057 106.396 103.747C106.396 103.437 106.143 103.212 105.861 103.212Z" fill="#D6DDE8"/>
<path d="M60.8393 103.41H51.7897C51.5921 103.41 51.4512 103.269 51.4512 103.072C51.4512 102.875 51.5921 102.734 51.7897 102.734H60.8393C61.0365 102.734 61.1775 102.875 61.1775 103.072C61.1775 103.269 61.0085 103.41 60.8393 103.41Z" fill="#69768C"/>
<path d="M60.3881 101.24C60.642 101.409 60.8109 101.691 60.8109 101.972V102.704H51.9023V101.944C51.9023 101.663 52.0433 101.381 52.2689 101.212L53.4248 100.424H53.4528V97.2422H59.1195V100.48L60.3881 101.24Z" fill="#B4BBCA"/>
<path opacity="0.3" d="M60.7829 102.001V102.733H58.1611V102.001C58.1611 101.691 58.1045 101.409 57.9919 101.268L57.4844 100.48V97.2422H59.1195V100.48L60.388 101.268C60.642 101.409 60.7829 101.691 60.7829 102.001Z" fill="#69768C"/>
<g filter="url(#filter0_d_1081_25225)">
<path d="M56.891 25.5272C56.5528 25.2175 56.0173 25.2175 55.6787 25.5272C54.0157 26.935 51.4219 31.9188 51.4219 37.2122V99.4102C51.4219 100.002 51.901 100.452 52.4648 100.452H56.2709H60.1049C60.697 100.452 61.1482 99.9733 61.1482 99.4102V37.2122C61.1762 31.9188 58.5544 26.9632 56.891 25.5272Z" fill="url(#paint0_linear_1081_25225)"/>
</g>
<path d="M61.1777 37.213V99.411C61.1777 100.002 60.6986 100.481 60.1064 100.481H57.4001C57.5693 100.481 57.7103 100.002 57.7103 99.411V37.213C57.7103 31.9196 56.9492 26.964 56.4697 25.528C56.4134 25.3872 56.3571 25.3027 56.3008 25.3027C56.5264 25.3027 56.7236 25.3872 56.8926 25.528C58.556 26.964 61.1777 31.9196 61.1777 37.213Z" fill="url(#paint1_linear_1081_25225)"/>
<path d="M74.0323 9.47925C73.2149 9.08504 72.0027 9.08504 71.185 9.47925C67.3226 11.422 61.1484 20.5167 61.1484 27.7529C61.1484 35.9466 61.1484 96.6802 61.1484 96.6802H72.5945H84.0405C84.0405 96.6802 84.0405 35.9466 84.0405 27.7529C84.0405 20.5448 77.8946 11.4502 74.0323 9.47925Z" fill="url(#paint2_linear_1081_25225)"/>
<path d="M84.0414 27.7807C84.0414 35.9741 84.0414 96.7081 84.0414 96.7081H77.3601C77.3601 96.7081 77.3601 35.9741 77.3601 27.7807C77.3601 20.5444 74.7946 11.4498 73.1875 9.507C73.0186 9.30988 72.793 9.19727 72.5957 9.19727C73.1028 9.19727 73.6103 9.30988 74.0052 9.507C77.8955 11.4498 84.0414 20.5444 84.0414 27.7807Z" fill="url(#paint3_linear_1081_25225)"/>
<path opacity="0.4" d="M72.5954 9.19727C72.4265 9.19727 72.2572 9.30988 72.1446 9.507C70.876 11.4498 68.9024 20.5444 68.9024 27.7807C68.9024 35.9741 68.9024 96.7081 68.9024 96.7081H64.166C64.166 96.7081 64.166 35.9741 64.166 27.7807C64.166 20.5444 68.7051 11.4498 71.5808 9.507C71.8627 9.28173 72.2292 9.19727 72.5954 9.19727Z" fill="url(#paint4_linear_1081_25225)"/>
<path opacity="0.4" fill-rule="evenodd" clip-rule="evenodd" d="M61.3809 32.4629H84.1148V33.5108H61.3809V32.4629Z" fill="#5A6170"/>
<path opacity="0.4" fill-rule="evenodd" clip-rule="evenodd" d="M61.0312 44.6875H84.115V45.7354H61.0312V44.6875Z" fill="#5A6170"/>
<path fill-rule="evenodd" clip-rule="evenodd" d="M51.248 60.1426H61.3521V61.1905H51.248V60.1426Z" fill="#AAB2C5"/>
<path fill-rule="evenodd" clip-rule="evenodd" d="M51.248 50.4512H61.3521V51.4991H51.248V50.4512Z" fill="#AAB2C5"/>
<path fill-rule="evenodd" clip-rule="evenodd" d="M51.248 37.5273H61.3521V38.5753H51.248V37.5273Z" fill="#AAB2C5"/>
<path d="M93.4561 103.41H84.4066C84.2093 103.41 84.0684 103.269 84.0684 103.072C84.0684 102.875 84.2093 102.734 84.4066 102.734H93.4561C93.6537 102.734 93.7947 102.875 93.7947 103.072C93.7947 103.269 93.6254 103.41 93.4561 103.41Z" fill="#69768C"/>
<path d="M93.0053 101.24C93.2588 101.409 93.4281 101.691 93.4281 101.972V102.704H84.5195V101.944C84.5195 101.663 84.6605 101.381 84.8861 101.212L86.0417 100.424H86.07V97.2422H91.7367V100.48L93.0053 101.24Z" fill="#B4BBCA"/>
<path opacity="0.3" d="M93.4007 102.001V102.733H91.0609V102.001C91.0609 101.691 90.9762 101.409 90.8636 101.268L90.2715 100.48V97.2422H91.7376V100.48L93.0062 101.268C93.2598 101.409 93.4007 101.691 93.4007 102.001Z" fill="#69768C"/>
<g filter="url(#filter1_d_1081_25225)">
<path d="M89.5105 25.5272C89.1719 25.2175 88.6364 25.2175 88.2982 25.5272C86.6348 26.935 84.041 31.9188 84.041 37.2122V99.4102C84.041 100.002 84.5202 100.452 85.0843 100.452H88.89H92.696C93.2882 100.452 93.739 99.9733 93.739 99.4102V37.2122C93.7956 31.9188 91.1735 26.9632 89.5105 25.5272Z" fill="url(#paint5_linear_1081_25225)"/>
</g>
<path d="M93.7953 37.213V99.411C93.7953 100.002 93.3158 100.481 92.724 100.481H90.0176C90.1865 100.481 90.3275 100.002 90.3275 99.411V37.213C90.3275 31.9196 89.5664 26.964 89.0873 25.528C89.0306 25.3872 88.9743 25.3027 88.918 25.3027C89.1436 25.3027 89.3408 25.3872 89.5101 25.528C91.1732 26.964 93.7953 31.9196 93.7953 37.213Z" fill="url(#paint6_linear_1081_25225)"/>
<path fill-rule="evenodd" clip-rule="evenodd" d="M83.7754 60.1426H93.8794V61.1905H83.7754V60.1426Z" fill="#AAB2C5"/>
<path fill-rule="evenodd" clip-rule="evenodd" d="M83.7754 50.4512H93.8794V51.4991H83.7754V50.4512Z" fill="#AAB2C5"/>
<path fill-rule="evenodd" clip-rule="evenodd" d="M83.7754 37.5273H93.8794V38.5753H83.7754V37.5273Z" fill="#AAB2C5"/>
<g filter="url(#filter2_d_1081_25225)">
<path d="M66.0268 46.364L66.506 44.5618L67.6903 44.2803L69.6636 43.8297L69.8892 43.7734L70.0581 46.364L72.9901 89.1058L66.6469 97.7496L64.1661 97.3273L46.9124 94.371C45.8411 94.202 45.0801 93.2728 45.0801 92.2028V84.0655C45.0801 83.1084 45.475 82.1509 46.1514 81.475L57.7667 69.7055C59.6554 67.7909 61.0086 65.4257 61.6853 62.8356L64.1661 53.4875L66.0268 46.364Z" fill="url(#paint7_linear_1081_25225)"/>
</g>
<path d="M58.0597 85.0344C59.6051 85.0344 60.8578 83.7832 60.8578 82.2398C60.8578 80.6965 59.6051 79.4453 58.0597 79.4453C56.5144 79.4453 55.2617 80.6965 55.2617 82.2398C55.2617 83.7832 56.5144 85.0344 58.0597 85.0344Z" fill="#9DA8BA"/>
<path d="M67.661 44.2812V56.079L66.3921 57.4868L66.2794 56.7263C66.2231 56.3606 65.9129 56.079 65.5464 56.079C65.2081 56.079 64.9262 56.304 64.8133 56.6138L61.4304 69.0872C61.2049 69.9318 60.7537 70.6923 60.1619 71.3116L47.4753 84.0103C47.2217 84.2635 47.0808 84.6016 47.0808 84.9394V87.6987C47.0808 88.4308 47.6725 89.0222 48.4056 89.0222H64.616L64.9825 91.6407C64.9825 91.8098 48.5749 91.669 45.0508 91.6407V84.0103C45.0508 83.0528 45.4173 82.0957 46.1221 81.4197L57.737 69.6503C59.6261 67.7357 60.9793 65.3704 61.656 62.7803L66.4767 44.5345L67.661 44.2812Z" fill="#69768C"/>
<path d="M72.989 89.1051L66.6459 97.721L64.1367 97.2987V53.4586L66.0254 46.3633H70.057L72.989 89.1051Z" fill="url(#paint8_linear_1081_25225)"/>
<g filter="url(#filter3_d_1081_25225)">
<path d="M100.984 84.0376V92.1749C100.984 93.2448 100.223 94.1737 99.1519 94.3427L86.2117 96.5672L79.4174 97.7217L73.0742 89.1058L76.1751 43.7734L76.4007 43.8297L78.374 44.3082L79.5583 44.5901L83.8718 60.8364L84.4073 62.8356C85.0841 65.4257 86.4373 67.7909 88.3259 69.7055L99.9413 81.475C100.618 82.1509 100.984 83.0801 100.984 84.0376Z" fill="url(#paint9_linear_1081_25225)"/>
</g>
<path d="M90.2432 80.293H84.8867V84.0942H90.2432V80.293Z" fill="#B4BCC9"/>
<path d="M87.6778 80.293H84.8867V82.3766H87.6778V80.293Z" fill="#939DB0"/>
<path d="M78.373 44.2812V56.079L79.642 57.4868L79.7546 56.7263C79.8109 56.3606 80.1211 56.079 80.4877 56.079C80.8259 56.079 81.1078 56.304 81.2207 56.6138L84.6319 69.0872C84.8575 69.9318 85.3083 70.6923 85.9004 71.3116L98.5871 84.0103C98.8406 84.2635 98.9816 84.6016 98.9816 84.9394V87.6987C98.9816 88.4308 98.3895 89.0222 97.6567 89.0222H81.4743L81.1078 91.6407C81.1078 91.8098 97.5158 91.669 101.04 91.6407V84.0103C101.04 83.0528 100.673 82.0957 99.9682 81.4197L88.297 69.6786C86.4079 67.764 85.0547 65.3987 84.378 62.8082L79.5573 44.5628L78.373 44.2812Z" fill="#69768C"/>
<path opacity="0.4" d="M86.2117 88.7114V96.5672L79.4174 97.7217L73.0742 89.1058L76.1751 43.7734L76.4007 43.8297L78.374 44.3082L79.5583 44.5901L83.8718 60.8364V85.3608C85.225 85.8394 86.2117 87.1629 86.2117 88.7114Z" fill="url(#paint10_linear_1081_25225)"/>
<g filter="url(#filter4_d_1081_25225)">
<path d="M79.643 42.2532V96.7083H66.1953V42.2532C66.1953 39.8884 66.7028 37.5511 67.7178 35.4113C67.9151 35.0171 68.1123 34.5947 68.3379 34.2006V34.1724L71.1573 29.4984C71.9467 28.175 73.8637 28.175 74.681 29.4984L77.5004 34.1724V34.2006C77.726 34.5947 77.9233 34.9889 78.1205 35.3831C79.1355 37.5511 79.643 39.8884 79.643 42.2532Z" fill="url(#paint11_linear_1081_25225)"/>
</g>
<path d="M79.6423 42.2532V96.7083H75.6107V42.2532C75.6107 39.888 75.4134 37.551 74.9906 35.4112C74.9059 35.017 74.8496 34.6228 74.737 34.2286V34.2005L73.6091 29.5265C73.4401 28.8507 73.1862 28.541 72.9043 28.541C73.5811 28.541 74.2575 28.8789 74.6524 29.5265L77.4714 34.2005V34.2286C77.697 34.6228 77.8942 35.017 78.0918 35.4112C79.1348 37.551 79.6423 39.888 79.6423 42.2532Z" fill="url(#paint12_linear_1081_25225)"/>
<path d="M78.1208 35.4113C77.6417 34.6792 76.8239 34.2006 75.9219 34.2006H69.9733C69.0713 34.2006 68.2256 34.6792 67.7461 35.4113C67.9437 35.0171 68.141 34.5947 68.3666 34.2006V34.1724L71.1856 29.4984C71.975 28.175 73.892 28.175 74.7097 29.4984L77.5287 34.1724V34.2006C77.7263 34.5947 77.9516 34.9889 78.1208 35.4113Z" fill="#69768C"/>
<path d="M75.9486 41.3808C75.9486 41.6058 75.695 41.6903 75.5541 41.5216C75.2438 41.1272 74.7647 40.9019 74.2009 40.9019H71.6071C71.0996 40.9019 70.6204 41.1272 70.3102 41.4933C70.2822 41.5216 70.2822 41.5216 70.2539 41.5496C70.1129 41.7186 69.8594 41.6058 69.8594 41.4088C69.8594 41.2401 69.8594 41.0148 69.8594 40.7332C69.8594 39.7757 70.6488 39.0156 71.6071 39.0156H74.2009C74.2572 39.0156 74.3135 39.0156 74.3701 39.0156C74.6237 39.0436 74.8493 39.1281 75.0749 39.2409C75.5824 39.5504 75.9486 40.1135 75.9486 40.7332C75.9486 41.0148 75.9486 41.2118 75.9486 41.3808Z" fill="#69768C"/>
<path opacity="0.5" fill-rule="evenodd" clip-rule="evenodd" d="M66.1133 57.0742H79.818V58.1222H66.1133V57.0742Z" fill="#8F9FBC"/>
<path opacity="0.5" fill-rule="evenodd" clip-rule="evenodd" d="M66.1133 72.1094H79.818V73.1573H66.1133V72.1094Z" fill="#8F9FBC"/>
<g filter="url(#filter5_d_1081_25225)">
<path d="M69.4099 85.1074H67.7748C65.7731 85.1074 64.166 86.7122 64.166 88.7113V97.7778H73.0186V88.7113C72.9903 86.7122 71.3832 85.1074 69.4099 85.1074Z" fill="url(#paint13_linear_1081_25225)"/>
</g>
<path d="M72.9886 88.7113V97.7778H69.4645V86.0083C69.4645 85.5014 69.07 85.1074 68.5625 85.1074H69.3799C71.3815 85.1074 72.9886 86.7122 72.9886 88.7113Z" fill="url(#paint14_linear_1081_25225)"/>
<g filter="url(#filter6_d_1081_25225)">
<path d="M78.1771 85.1074H76.542C74.5404 85.1074 72.9336 86.7122 72.9336 88.7113V97.7778H81.7859V88.7113C81.7859 86.7122 80.1787 85.1074 78.1771 85.1074Z" fill="url(#paint15_linear_1081_25225)"/>
</g>
<path d="M81.7862 88.7113V97.7778H78.7132V86.2899C78.7132 85.6422 78.1774 85.1074 77.5293 85.1074H78.1774C80.179 85.1074 81.7862 86.7122 81.7862 88.7113Z" fill="url(#paint16_linear_1081_25225)"/>
<path opacity="0.4" d="M72.9043 88.7113V97.7778H75.9772V86.2899C75.9772 85.6422 76.5131 85.1074 77.1615 85.1074H76.5131C74.5394 85.1074 72.9043 86.7122 72.9043 88.7113Z" fill="url(#paint17_linear_1081_25225)"/>
<g filter="url(#filter7_d_1081_25225)">
<path d="M77.5847 97.7227H68.2816L66.3643 99.0179C65.9697 99.2995 65.7441 99.7218 65.7441 100.2V101.467H80.4041V100.257C80.4041 99.7497 80.1501 99.2995 79.7273 99.0459L77.5847 97.7227Z" fill="#9FAABC"/>
</g>
<path opacity="0.3" d="M80.4047 100.285V101.496H76.0069V100.285C76.0069 99.778 75.8939 99.3274 75.725 99.0459L74.8789 97.7227H77.5853L79.7282 99.0459C80.1511 99.2995 80.4047 99.778 80.4047 100.285Z" fill="#69768C"/>
<path d="M72.0316 49.0115H71.4115C71.1012 49.0115 70.8477 48.7579 70.8477 48.4484V47.8287C70.8477 47.5192 71.1012 47.2656 71.4115 47.2656H72.0316C72.3418 47.2656 72.5957 47.5192 72.5957 47.8287V48.4484C72.5957 48.7579 72.3418 49.0115 72.0316 49.0115Z" fill="#69768C"/>
<path d="M74.653 49.0115H74.0326C73.7227 49.0115 73.4688 48.7579 73.4688 48.4484V47.8287C73.4688 47.5192 73.7227 47.2656 74.0326 47.2656H74.653C74.9629 47.2656 75.2168 47.5192 75.2168 47.8287V48.4484C75.2168 48.7579 74.9629 49.0115 74.653 49.0115Z" fill="#69768C"/>
<g filter="url(#filter8_d_1081_25225)">
<path d="M73.8343 103.747H72.002V82.911C72.002 82.4041 72.4248 82.0098 72.904 82.0098C73.4115 82.0098 73.806 82.4321 73.806 82.911V103.747H73.8343Z" fill="url(#paint18_linear_1081_25225)"/>
</g>
<path d="M59.4297 117.291C60.5573 116.362 62.0235 115.799 63.6302 115.799C66.224 115.799 68.4512 117.291 69.5225 119.459" stroke="#AAB2C5" stroke-width="2" stroke-miterlimit="10" stroke-linecap="round" stroke-linejoin="round"/>
<path opacity="0.3" d="M73.2705 38.9863L72.2559 40.9009H71.6074C71.0999 40.9009 70.6204 41.1262 70.3105 41.4923L71.6354 38.9863H73.2705Z" fill="white"/>
<path opacity="0.3" d="M75.0752 39.2116L74.2012 40.9009H73.3555L74.3705 38.9863C74.624 39.0146 74.8496 39.0992 75.0752 39.2116Z" fill="white"/>
<path d="M21.1722 134.186C21.0876 133.397 21.0312 132.609 21.0312 131.82C21.0312 120.304 30.3628 110.984 41.8933 110.984C51.5069 110.984 59.5978 117.46 62.0223 126.301" stroke="#AAB2C5" stroke-width="2" stroke-miterlimit="10" stroke-linecap="round" stroke-linejoin="round"/>
<path d="M23.484 141.618C22.5819 139.929 21.9053 138.071 21.4824 136.156" stroke="#AAB2C5" stroke-width="2" stroke-miterlimit="10" stroke-linecap="round" stroke-linejoin="round"/>
<path d="M62.1914 126.215C62.417 122.442 65.5746 119.43 69.4086 119.43C70.8464 119.43 72.1716 119.852 73.2992 120.556" stroke="#AAB2C5" stroke-width="2" stroke-miterlimit="10" stroke-linecap="round" stroke-linejoin="round"/>
<path d="M76.4004 115.459C77.5563 114.671 78.9662 114.221 80.4603 114.221C82.8565 114.221 84.9428 115.375 86.2676 117.149" stroke="#AAB2C5" stroke-width="2" stroke-miterlimit="10" stroke-linecap="round" stroke-linejoin="round"/>
<path d="M118.914 127.201C119.901 129.228 120.437 131.481 120.437 133.874C120.437 135.113 120.296 136.324 120.014 137.478" stroke="#AAB2C5" stroke-width="2" stroke-miterlimit="10" stroke-linecap="round" stroke-linejoin="round"/>
<path d="M92.3281 125.089C95.1192 121.091 99.7429 118.473 104.986 118.473C109.976 118.473 114.431 120.838 117.25 124.526" stroke="#AAB2C5" stroke-width="2" stroke-miterlimit="10" stroke-linecap="round" stroke-linejoin="round"/>
<path d="M120.438 132.805C120.578 132.805 120.719 132.805 120.86 132.805C124.61 132.805 127.655 135.846 127.655 139.59C127.655 140.942 127.26 142.181 126.583 143.223" stroke="#AAB2C5" stroke-width="2" stroke-miterlimit="10" stroke-linecap="round" stroke-linejoin="round"/>
<path opacity="0.3" d="M120.437 133.904C120.437 144.659 109.668 152.093 99.6035 148.348C109.245 150.46 118.379 143.139 118.379 133.284C118.379 126.667 114.207 121.008 108.315 118.84C115.25 120.36 120.437 126.527 120.437 133.904Z" fill="#99A8CC"/>
<path d="M111.923 147.672C111.67 147.813 111.416 147.925 111.162 148.038" stroke="#AAB2C5" stroke-width="2" stroke-miterlimit="10" stroke-linecap="round" stroke-linejoin="round"/>
<path d="M120.042 137.311C119.197 140.999 117.054 144.181 114.094 146.349" stroke="#AAB2C5" stroke-width="2" stroke-miterlimit="10" stroke-linecap="round" stroke-linejoin="round"/>
<path d="M45.3887 136.887C47.1931 137.168 48.6309 138.52 49.0537 140.266" stroke="#AAB2C5" stroke-width="2" stroke-miterlimit="10" stroke-linecap="round" stroke-linejoin="round"/>
<path d="M47.2227 137.507C48.6605 135.255 51.1976 133.734 54.0733 133.734C55.7084 133.734 57.2309 134.213 58.4994 135.058" stroke="#AAB2C5" stroke-width="2" stroke-miterlimit="10" stroke-linecap="round" stroke-linejoin="round"/>
<path d="M57.1178 134.325C57.0898 134.127 57.0898 133.93 57.0898 133.733C57.0898 129.257 60.7266 125.652 65.1807 125.652C69.6352 125.652 73.2719 129.285 73.2719 133.733C73.2719 134.325 73.2156 134.888 73.1026 135.451" stroke="#AAB2C5" stroke-width="2" stroke-miterlimit="10" stroke-linecap="round" stroke-linejoin="round"/>
<path d="M73.1016 135.451C73.7217 136.043 74.2575 136.746 74.6237 137.535" stroke="#AAB2C5" stroke-width="2" stroke-miterlimit="10" stroke-linecap="round" stroke-linejoin="round"/>
<path d="M73.7227 139.76C75.0759 135.058 79.389 131.623 84.5482 131.623C89.9047 131.623 94.3872 135.368 95.5151 140.351" stroke="#AAB2C5" stroke-width="2" stroke-miterlimit="10" stroke-linecap="round" stroke-linejoin="round"/>
<path opacity="0.3" d="M80.9961 153.501C76.5137 152.008 73.2715 147.813 73.2715 142.83C73.2715 137.621 76.8236 133.256 81.6163 131.961C72.3974 135.987 72.0313 148.968 80.9961 153.501Z" fill="#99A8CC"/>
<path d="M73.2988 142.295C73.2988 142.098 73.3268 141.928 73.3268 141.76" stroke="#AAB2C5" stroke-width="2" stroke-miterlimit="10" stroke-linecap="round" stroke-linejoin="round"/>
<path d="M91.8219 149.305C91.794 149.024 91.7656 148.77 91.7656 148.489C91.7656 145.392 94.2748 142.857 97.404 142.857C100.505 142.857 103.042 145.363 103.042 148.489" stroke="#AAB2C5" stroke-width="2" stroke-miterlimit="10" stroke-linecap="round" stroke-linejoin="round"/>
<path d="M135.152 133.93C135.547 133.311 136.252 132.889 137.041 132.889C138.253 132.889 139.24 133.874 139.24 135.085" stroke="#AAB2C5" stroke-width="2" stroke-miterlimit="10" stroke-linecap="round" stroke-linejoin="round"/>
<path d="M134.87 135.508C134.87 135.48 134.87 135.452 134.842 135.424" stroke="#AAB2C5" stroke-width="2" stroke-miterlimit="10" stroke-linecap="round" stroke-linejoin="round"/>
<path d="M138.676 136.549C138.282 136.999 137.69 137.281 137.013 137.281C136.252 137.281 135.604 136.915 135.209 136.352" stroke="#AAB2C5" stroke-width="2" stroke-miterlimit="10" stroke-linecap="round" stroke-linejoin="round"/>
<path d="M53.1699 141.45C53.5644 140.831 54.2695 140.408 55.0589 140.408C56.2712 140.408 57.2578 141.394 57.2578 142.604" stroke="#AAB2C5" stroke-width="2" stroke-miterlimit="10" stroke-linecap="round" stroke-linejoin="round"/>
<path d="M52.8897 143.053C52.8897 143.025 52.8897 142.997 52.8613 142.969" stroke="#AAB2C5" stroke-width="2" stroke-miterlimit="10" stroke-linecap="round" stroke-linejoin="round"/>
<path d="M56.6944 144.068C56.2995 144.519 55.7074 144.8 55.0309 144.8C54.2695 144.8 53.6214 144.434 53.2266 143.871" stroke="#AAB2C5" stroke-width="2" stroke-miterlimit="10" stroke-linecap="round" stroke-linejoin="round"/>
<path d="M15.6191 143.616C18.3538 142.349 21.3985 141.617 24.5842 141.617C25.1762 141.617 25.7683 141.645 26.3321 141.702" stroke="#AAB2C5" stroke-width="2" stroke-miterlimit="10" stroke-linecap="round" stroke-linejoin="round"/>
<path d="M12.207 145.617C12.7145 145.251 13.2219 144.913 13.7576 144.604" stroke="#AAB2C5" stroke-width="2" stroke-miterlimit="10" stroke-linecap="round" stroke-linejoin="round"/>
<path d="M136.084 145.194C133.349 143.927 130.305 143.195 127.119 143.195C126.527 143.195 125.935 143.224 125.371 143.28" stroke="#AAB2C5" stroke-width="2" stroke-miterlimit="10" stroke-linecap="round" stroke-linejoin="round"/>
<path d="M103.184 72.5496C103.184 70.2969 105.016 68.4668 107.271 68.4668C107.722 68.4668 108.145 68.5513 108.568 68.6638" stroke="#AAB2C5" stroke-width="2" stroke-miterlimit="10" stroke-linecap="round" stroke-linejoin="round"/>
<path d="M130.445 72.9727H137.662" stroke="#AAB2C5" stroke-width="2" stroke-miterlimit="10" stroke-linecap="round" stroke-linejoin="round"/>
<path d="M118.238 70.1562C119.789 70.1562 121.029 71.3953 121.029 72.9438H127.119" stroke="#AAB2C5" stroke-width="2" stroke-miterlimit="10" stroke-linecap="round" stroke-linejoin="round"/>
<path d="M108.596 68.6631C109.216 66.7202 111.048 65.3125 113.219 65.3125C115.897 65.3125 118.068 67.4807 118.068 70.1554" stroke="#AAB2C5" stroke-width="2" stroke-miterlimit="10" stroke-linecap="round" stroke-linejoin="round"/>
<path d="M42.7103 78.4068C42.7103 77.3648 41.8646 76.4922 40.7933 76.4922C40.596 76.4922 40.3705 76.5201 40.2012 76.5764" stroke="#AAB2C5" stroke-width="2" stroke-miterlimit="10" stroke-linecap="round" stroke-linejoin="round"/>
<path d="M29.9963 78.5742H26.6133" stroke="#AAB2C5" stroke-width="2" stroke-miterlimit="10" stroke-linecap="round" stroke-linejoin="round"/>
<path d="M35.691 77.2793C34.9581 77.2793 34.3943 77.8707 34.3943 78.5746H31.5469" stroke="#AAB2C5" stroke-width="2" stroke-miterlimit="10" stroke-linecap="round" stroke-linejoin="round"/>
<path d="M40.1732 76.5768C39.8913 75.6759 39.0176 75 38.0306 75C36.7904 75 35.7754 76.0137 35.7754 77.2527" stroke="#AAB2C5" stroke-width="2" stroke-miterlimit="10" stroke-linecap="round" stroke-linejoin="round"/>
<path d="M5.72266 93.6108C5.72266 92.4001 6.70935 91.3867 7.94982 91.3867C8.20353 91.3867 8.42909 91.4147 8.65461 91.4992" stroke="#AAB2C5" stroke-width="2" stroke-miterlimit="10" stroke-linecap="round" stroke-linejoin="round"/>
<path d="M13.8711 92.3164C14.7168 92.3164 15.3935 92.992 15.3935 93.8366H18.6919" stroke="#AAB2C5" stroke-width="2" stroke-miterlimit="10" stroke-linecap="round" stroke-linejoin="round"/>
<path d="M8.65625 91.5277C8.99453 90.4857 9.98126 89.6973 11.1653 89.6973C12.6031 89.6973 13.7872 90.88 13.7872 92.3161" stroke="#AAB2C5" stroke-width="2" stroke-miterlimit="10" stroke-linecap="round" stroke-linejoin="round"/>
<path opacity="0.3" d="M104.057 118.501C107.158 111.772 113.98 107.098 121.902 107.098C132.756 107.098 141.552 115.883 141.552 126.723C141.552 132.016 139.466 136.831 136.055 140.351" stroke="#AAB2C5" stroke-width="2" stroke-miterlimit="10" stroke-linecap="round" stroke-linejoin="round"/>
<path opacity="0.3" d="M2.0585 138.099C0.0568722 130.947 2.22766 122.978 8.26073 117.882C14.3502 112.729 22.6669 111.913 29.4329 115.123" stroke="#AAB2C5" stroke-width="2" stroke-miterlimit="10" stroke-linecap="round" stroke-linejoin="round"/>
<path d="M24.8379 102.48H27.1778V102.339C27.1778 101.129 28.1645 100.143 29.3768 100.143C29.9406 100.143 30.4481 100.369 30.8428 100.706V100.678C31.4348 98.8763 33.1263 97.5527 35.1279 97.5527C37.6087 97.5527 39.6387 99.5802 39.6387 102.058C39.6387 102.283 39.6104 102.536 39.5824 102.762L39.6387 102.818H40.8509" stroke="#AAB2C5" stroke-width="2" stroke-miterlimit="10" stroke-linecap="round" stroke-linejoin="round"/>
<path d="M130.98 87.0791H128.753V86.9383C128.753 85.7838 127.822 84.8546 126.667 84.8546C126.131 84.8546 125.652 85.0517 125.257 85.3898V85.3615C124.693 83.6439 123.086 82.377 121.141 82.377C118.773 82.377 116.827 84.2915 116.827 86.6847C116.827 86.91 116.856 87.1353 116.884 87.3606L116.827 87.4169H115.672" stroke="#AAB2C5" stroke-width="2" stroke-miterlimit="10" stroke-linecap="round" stroke-linejoin="round"/>
<path d="M17.959 23.867C17.959 23.8952 17.959 23.9234 17.959 23.9516V23.8105C17.959 23.8105 17.959 23.8388 17.959 23.867Z" fill="#F1F3FA" stroke="#AAB2C5" stroke-width="2" stroke-miterlimit="10"/>
<path d="M121.162 37.9685C124.41 34.7248 124.41 29.4656 121.162 26.2219C117.914 22.9781 112.649 22.9781 109.401 26.2219C106.153 29.4656 106.153 34.7248 109.401 37.9685C112.649 41.2122 117.914 41.2122 121.162 37.9685Z" fill="url(#paint19_linear_1081_25225)"/>
<path d="M117.025 40.2263C113.699 37.2135 110.203 33.7221 107.158 30.3715C108.511 23.9799 116.49 21.5303 121.198 26.2043C125.849 30.8783 123.425 38.8748 117.025 40.2263Z" fill="#F1F3FA" stroke="#AAB2C5" stroke-width="2" stroke-miterlimit="10"/>
<g filter="url(#filter9_d_1081_25225)">
<path d="M110.259 25.4718C104.508 20.3754 99.9413 17.3345 99.039 18.2355C98.1086 19.1647 101.52 24.2047 107.13 30.371C116.377 40.592 127.682 49.7992 129.176 48.307C130.727 46.7581 120.69 34.679 110.259 25.4718ZM119.225 39.4092C109.16 31.7789 100.646 19.0521 109.78 25.8378C116.208 30.5963 124.496 40.1976 123.312 41.3804C122.889 41.8027 121.339 41.0143 119.225 39.4092Z" fill="#D5DDEA"/>
</g>
<g opacity="0.3" filter="url(#filter10_d_1081_25225)">
<path d="M102.9 21.5306C101.858 22.5723 106.143 28.5415 112.486 34.8768C118.829 41.212 124.806 45.4918 125.849 44.4502C128.302 42.0004 105.382 19.0528 102.9 21.5306ZM105.973 24.0646C106.735 23.3044 111.245 26.5424 116.038 31.329C120.831 36.1159 124.073 40.5927 123.312 41.3811C121.479 43.2111 104.141 25.8948 105.973 24.0646Z" fill="url(#paint20_linear_1081_25225)"/>
</g>
<path d="M119.224 39.4092C115.531 36.6217 110.738 31.8352 107.947 28.1467C110.513 23.3601 117.138 22.1775 121.169 26.2039C125.173 30.2021 124.045 36.8191 119.224 39.4092Z" fill="url(#paint21_linear_1081_25225)"/>
<path opacity="0.3" d="M121.141 38.0017C120.549 38.5648 119.9 39.0437 119.224 39.4095C115.531 36.6219 110.738 31.8355 107.947 28.1469C108.285 27.4993 108.765 26.9362 109.3 26.373C108.708 28.6819 119.506 39.2407 121.141 38.0017Z" fill="#5D6371"/>
<path d="M120.972 34.6226C121.611 34.6226 122.128 33.778 122.128 32.7361C122.128 31.6942 121.611 30.8496 120.972 30.8496C120.334 30.8496 119.816 31.6942 119.816 32.7361C119.816 33.778 120.334 34.6226 120.972 34.6226Z" fill="#868D9D"/>
<path d="M118.096 28.9069C118.61 28.9069 119.027 28.4026 119.027 27.7806C119.027 27.1586 118.61 26.6543 118.096 26.6543C117.583 26.6543 117.166 27.1586 117.166 27.7806C117.166 28.4026 117.583 28.9069 118.096 28.9069Z" fill="#868D9D"/>
<path d="M112.366 28.0267C112.842 27.9497 113.178 27.5761 113.116 27.1924C113.053 26.8087 112.617 26.56 112.14 26.637C111.664 26.7141 111.328 27.0876 111.39 27.4713C111.452 27.8551 111.889 28.1037 112.366 28.0267Z" fill="#868D9D"/>
<path d="M115.459 31.1474C116.227 31.0231 116.765 30.3998 116.661 29.7551C116.556 29.1104 115.849 28.6885 115.08 28.8127C114.312 28.937 113.774 29.5603 113.878 30.205C113.982 30.8497 114.69 31.2716 115.459 31.1474Z" fill="#868D9D"/>
<path d="M40.2593 46.3358C40.2593 55.3178 31.1814 61.5122 22.8084 58.2181C20.6094 57.3452 18.7206 55.9091 17.3109 54.0508C10.9677 45.7165 16.8599 33.5527 27.4882 33.5527C28.9542 33.5527 30.3357 33.8062 31.6325 34.2285C36.6789 36.0024 40.2593 40.789 40.2593 46.3358Z" fill="url(#paint22_linear_1081_25225)"/>
<path opacity="0.5" d="M25.8804 47.5473C25.8804 49.3495 24.4144 50.8134 22.6101 50.8134C22.1027 50.8134 21.6234 50.701 21.1723 50.4757C20.0728 49.9409 19.3398 48.8426 19.3398 47.5473C19.3398 45.7456 20.8058 44.2812 22.6101 44.2812C23.5405 44.2812 24.4144 44.6756 25.0064 45.3229C25.5421 45.8864 25.8804 46.6744 25.8804 47.5473Z" fill="#69768C"/>
<path opacity="0.4" d="M25.8809 47.5466C25.8809 49.3487 24.4149 50.8127 22.6106 50.8127C22.1031 50.8127 21.6239 50.7002 21.1728 50.4749C20.6371 49.8835 20.2988 49.1234 20.2988 48.2505C20.2988 46.4487 21.7648 44.9844 23.5691 44.9844C24.0766 44.9844 24.5558 45.0969 25.0069 45.3222C25.5425 45.8853 25.8809 46.6737 25.8809 47.5466Z" fill="#69768C"/>
<path opacity="0.5" d="M30.8137 42.0565C30.8137 43.2955 29.827 44.2809 28.5865 44.2809C28.361 44.2809 28.1636 44.2526 27.9663 44.1964C27.036 43.9431 26.3594 43.0702 26.3594 42.0565C26.3594 40.8178 27.3461 39.832 28.5865 39.832C29.2068 39.832 29.7424 40.0856 30.1371 40.4517C30.56 40.874 30.8137 41.4371 30.8137 42.0565Z" fill="#69768C"/>
<path opacity="0.4" d="M30.815 42.0559C30.815 43.2949 29.8283 44.2803 28.5878 44.2803C28.3623 44.2803 28.1649 44.252 27.9676 44.1958C27.5447 43.8017 27.291 43.2387 27.291 42.619C27.291 41.3803 28.2777 40.3945 29.5182 40.3945C29.7437 40.3945 29.9411 40.4228 30.1384 40.4791C30.5613 40.8734 30.815 41.4365 30.815 42.0559Z" fill="#69768C"/>
<path opacity="0.5" d="M32.6477 51.1795C32.6477 52.4185 31.661 53.404 30.4206 53.404C30.3078 53.404 30.1668 53.404 30.054 53.3757C28.9828 53.2069 28.1934 52.2778 28.1934 51.1795C28.1934 49.9408 29.1801 48.9551 30.4206 48.9551C30.8716 48.9551 31.2945 49.0958 31.661 49.3212C32.253 49.7155 32.6477 50.3911 32.6477 51.1795Z" fill="#69768C"/>
<path opacity="0.4" d="M32.6468 51.1793C32.6468 52.4183 31.6601 53.4037 30.4196 53.4037C30.3068 53.4037 30.1659 53.4037 30.0531 53.3754C29.4611 52.9814 29.0664 52.3055 29.0664 51.5174C29.0664 50.2784 30.0531 49.293 31.2936 49.293C31.4063 49.293 31.5191 49.293 31.6601 49.3209C32.2521 49.7153 32.6468 50.3909 32.6468 51.1793Z" fill="#69768C"/>
<path opacity="0.5" d="M35.128 46.0548C35.128 46.8715 34.4797 47.5191 33.6621 47.5191C33.5775 47.5191 33.493 47.5191 33.4084 47.4908C32.7036 47.3783 32.168 46.7586 32.168 46.0268C32.168 45.2101 32.8446 44.5625 33.634 44.5625C33.9722 44.5625 34.2824 44.675 34.5361 44.8723C34.9026 45.1818 35.128 45.6042 35.128 46.0548Z" fill="#69768C"/>
<path opacity="0.4" d="M35.1272 46.0535C35.1272 46.8702 34.4789 47.5179 33.6613 47.5179C33.5768 47.5179 33.4922 47.5179 33.4076 47.4896C33.0693 47.208 32.8438 46.7857 32.8438 46.3351C32.8438 45.5187 33.4922 44.8711 34.3097 44.8711C34.3943 44.8711 34.4789 44.8711 34.5635 44.899C34.9018 45.1806 35.1272 45.6029 35.1272 46.0535Z" fill="#69768C"/>
<path opacity="0.1" d="M40.2596 46.3365C40.2596 55.3184 31.1816 61.5128 22.8086 58.2188C23.006 58.0497 23.2597 57.9372 23.4852 57.8244C27.855 55.6845 31.8864 57.4304 33.6062 54.3892C34.3955 52.9815 33.9444 51.1514 34.6774 49.7154C35.0157 49.0115 35.6079 48.4484 35.9461 47.7725C37.1583 45.2948 34.6774 39.945 35.1567 38.4528C35.3539 37.8614 35.9461 37.4953 36.5662 37.3828C38.8497 39.6914 40.2596 42.8451 40.2596 46.3365Z" fill="#69768C"/>
<path opacity="0.1" d="M31.9415 36.1994C31.2367 37.9732 28.3047 37.4384 27.0079 37.4664C24.386 37.4946 24.0195 38.8182 23.4839 39.5221C22.6381 40.62 21.0876 41.0706 19.7907 40.62C20.9184 46.026 18.5785 45.5474 18.1556 47.265C17.6763 49.2924 21.2849 50.5311 20.6083 52.5302C20.2136 53.6847 18.5221 53.9663 17.2816 54.0508C10.9384 45.7165 16.8306 33.5527 27.4589 33.5527C28.9249 33.5527 30.3063 33.8062 31.6032 34.2285C31.9978 34.848 32.1952 35.5801 31.9415 36.1994Z" fill="white"/>
<path opacity="0.3" d="M21.7361 41.8311C22.2344 41.8311 22.6383 41.428 22.6383 40.9302C22.6383 40.4324 22.2344 40.0293 21.7361 40.0293C21.2379 40.0293 20.834 40.4324 20.834 40.9302C20.834 41.428 21.2379 41.8311 21.7361 41.8311Z" fill="#AAB2C5"/>
</g>
<defs>
<filter id="filter0_d_1081_25225" x="29.4219" y="14.2949" width="53.7266" height="119.158" filterUnits="userSpaceOnUse" color-interpolation-filters="sRGB">
<feFlood flood-opacity="0" result="BackgroundImageFix"/>
<feColorMatrix in="SourceAlpha" type="matrix" values="0 0 0 0 0 0 0 0 0 0 0 0 0 0 0 0 0 0 127 0" result="hardAlpha"/>
<feOffset dy="11"/>
<feGaussianBlur stdDeviation="11"/>
<feColorMatrix type="matrix" values="0 0 0 0 0.397708 0 0 0 0 0.47749 0 0 0 0 0.575 0 0 0 0.27 0"/>
<feBlend mode="normal" in2="BackgroundImageFix" result="effect1_dropShadow_1081_25225"/>
<feBlend mode="normal" in="SourceGraphic" in2="effect1_dropShadow_1081_25225" result="shape"/>
</filter>
<filter id="filter1_d_1081_25225" x="62.041" y="14.2949" width="53.6992" height="119.158" filterUnits="userSpaceOnUse" color-interpolation-filters="sRGB">
<feFlood flood-opacity="0" result="BackgroundImageFix"/>
<feColorMatrix in="SourceAlpha" type="matrix" values="0 0 0 0 0 0 0 0 0 0 0 0 0 0 0 0 0 0 127 0" result="hardAlpha"/>
<feOffset dy="11"/>
<feGaussianBlur stdDeviation="11"/>
<feColorMatrix type="matrix" values="0 0 0 0 0.397708 0 0 0 0 0.47749 0 0 0 0 0.575 0 0 0 0.27 0"/>
<feBlend mode="normal" in2="BackgroundImageFix" result="effect1_dropShadow_1081_25225"/>
<feBlend mode="normal" in="SourceGraphic" in2="effect1_dropShadow_1081_25225" result="shape"/>
</filter>
<filter id="filter2_d_1081_25225" x="23.0801" y="32.7734" width="71.9102" height="97.9766" filterUnits="userSpaceOnUse" color-interpolation-filters="sRGB">
<feFlood flood-opacity="0" result="BackgroundImageFix"/>
<feColorMatrix in="SourceAlpha" type="matrix" values="0 0 0 0 0 0 0 0 0 0 0 0 0 0 0 0 0 0 127 0" result="hardAlpha"/>
<feOffset dy="11"/>
<feGaussianBlur stdDeviation="11"/>
<feColorMatrix type="matrix" values="0 0 0 0 0.397708 0 0 0 0 0.47749 0 0 0 0 0.575 0 0 0 0.27 0"/>
<feBlend mode="normal" in2="BackgroundImageFix" result="effect1_dropShadow_1081_25225"/>
<feBlend mode="normal" in="SourceGraphic" in2="effect1_dropShadow_1081_25225" result="shape"/>
</filter>
<filter id="filter3_d_1081_25225" x="51.0742" y="32.7734" width="71.9102" height="97.9473" filterUnits="userSpaceOnUse" color-interpolation-filters="sRGB">
<feFlood flood-opacity="0" result="BackgroundImageFix"/>
<feColorMatrix in="SourceAlpha" type="matrix" values="0 0 0 0 0 0 0 0 0 0 0 0 0 0 0 0 0 0 127 0" result="hardAlpha"/>
<feOffset dy="11"/>
<feGaussianBlur stdDeviation="11"/>
<feColorMatrix type="matrix" values="0 0 0 0 0.397708 0 0 0 0 0.47749 0 0 0 0 0.575 0 0 0 0.27 0"/>
<feBlend mode="normal" in2="BackgroundImageFix" result="effect1_dropShadow_1081_25225"/>
<feBlend mode="normal" in="SourceGraphic" in2="effect1_dropShadow_1081_25225" result="shape"/>
</filter>
<filter id="filter4_d_1081_25225" x="44.1953" y="17.5059" width="57.4473" height="112.203" filterUnits="userSpaceOnUse" color-interpolation-filters="sRGB">
<feFlood flood-opacity="0" result="BackgroundImageFix"/>
<feColorMatrix in="SourceAlpha" type="matrix" values="0 0 0 0 0 0 0 0 0 0 0 0 0 0 0 0 0 0 127 0" result="hardAlpha"/>
<feOffset dy="11"/>
<feGaussianBlur stdDeviation="11"/>
<feColorMatrix type="matrix" values="0 0 0 0 0.397708 0 0 0 0 0.47749 0 0 0 0 0.575 0 0 0 0.27 0"/>
<feBlend mode="normal" in2="BackgroundImageFix" result="effect1_dropShadow_1081_25225"/>
<feBlend mode="normal" in="SourceGraphic" in2="effect1_dropShadow_1081_25225" result="shape"/>
</filter>
<filter id="filter5_d_1081_25225" x="42.166" y="74.1074" width="52.8535" height="56.6699" filterUnits="userSpaceOnUse" color-interpolation-filters="sRGB">
<feFlood flood-opacity="0" result="BackgroundImageFix"/>
<feColorMatrix in="SourceAlpha" type="matrix" values="0 0 0 0 0 0 0 0 0 0 0 0 0 0 0 0 0 0 127 0" result="hardAlpha"/>
<feOffset dy="11"/>
<feGaussianBlur stdDeviation="11"/>
<feColorMatrix type="matrix" values="0 0 0 0 0.397708 0 0 0 0 0.47749 0 0 0 0 0.575 0 0 0 0.27 0"/>
<feBlend mode="normal" in2="BackgroundImageFix" result="effect1_dropShadow_1081_25225"/>
<feBlend mode="normal" in="SourceGraphic" in2="effect1_dropShadow_1081_25225" result="shape"/>
</filter>
<filter id="filter6_d_1081_25225" x="50.9336" y="74.1074" width="52.8516" height="56.6699" filterUnits="userSpaceOnUse" color-interpolation-filters="sRGB">
<feFlood flood-opacity="0" result="BackgroundImageFix"/>
<feColorMatrix in="SourceAlpha" type="matrix" values="0 0 0 0 0 0 0 0 0 0 0 0 0 0 0 0 0 0 127 0" result="hardAlpha"/>
<feOffset dy="11"/>
<feGaussianBlur stdDeviation="11"/>
<feColorMatrix type="matrix" values="0 0 0 0 0.397708 0 0 0 0 0.47749 0 0 0 0 0.575 0 0 0 0.27 0"/>
<feBlend mode="normal" in2="BackgroundImageFix" result="effect1_dropShadow_1081_25225"/>
<feBlend mode="normal" in="SourceGraphic" in2="effect1_dropShadow_1081_25225" result="shape"/>
</filter>
<filter id="filter7_d_1081_25225" x="43.7441" y="86.7227" width="58.6602" height="47.7441" filterUnits="userSpaceOnUse" color-interpolation-filters="sRGB">
<feFlood flood-opacity="0" result="BackgroundImageFix"/>
<feColorMatrix in="SourceAlpha" type="matrix" values="0 0 0 0 0 0 0 0 0 0 0 0 0 0 0 0 0 0 127 0" result="hardAlpha"/>
<feOffset dy="11"/>
<feGaussianBlur stdDeviation="11"/>
<feColorMatrix type="matrix" values="0 0 0 0 0.397708 0 0 0 0 0.47749 0 0 0 0 0.575 0 0 0 0.27 0"/>
<feBlend mode="normal" in2="BackgroundImageFix" result="effect1_dropShadow_1081_25225"/>
<feBlend mode="normal" in="SourceGraphic" in2="effect1_dropShadow_1081_25225" result="shape"/>
</filter>
<filter id="filter8_d_1081_25225" x="50.002" y="71.0098" width="45.832" height="65.7363" filterUnits="userSpaceOnUse" color-interpolation-filters="sRGB">
<feFlood flood-opacity="0" result="BackgroundImageFix"/>
<feColorMatrix in="SourceAlpha" type="matrix" values="0 0 0 0 0 0 0 0 0 0 0 0 0 0 0 0 0 0 127 0" result="hardAlpha"/>
<feOffset dy="11"/>
<feGaussianBlur stdDeviation="11"/>
<feColorMatrix type="matrix" values="0 0 0 0 0.397708 0 0 0 0 0.47749 0 0 0 0 0.575 0 0 0 0.27 0"/>
<feBlend mode="normal" in2="BackgroundImageFix" result="effect1_dropShadow_1081_25225"/>
<feBlend mode="normal" in="SourceGraphic" in2="effect1_dropShadow_1081_25225" result="shape"/>
</filter>
<filter id="filter9_d_1081_25225" x="76.8867" y="7.07812" width="74.4492" height="74.3887" filterUnits="userSpaceOnUse" color-interpolation-filters="sRGB">
<feFlood flood-opacity="0" result="BackgroundImageFix"/>
<feColorMatrix in="SourceAlpha" type="matrix" values="0 0 0 0 0 0 0 0 0 0 0 0 0 0 0 0 0 0 127 0" result="hardAlpha"/>
<feOffset dy="11"/>
<feGaussianBlur stdDeviation="11"/>
<feColorMatrix type="matrix" values="0 0 0 0 0.397708 0 0 0 0 0.47749 0 0 0 0 0.575 0 0 0 0.27 0"/>
<feBlend mode="normal" in2="BackgroundImageFix" result="effect1_dropShadow_1081_25225"/>
<feBlend mode="normal" in="SourceGraphic" in2="effect1_dropShadow_1081_25225" result="shape"/>
</filter>
<filter id="filter10_d_1081_25225" x="80.7441" y="10.3438" width="67.2891" height="67.2617" filterUnits="userSpaceOnUse" color-interpolation-filters="sRGB">
<feFlood flood-opacity="0" result="BackgroundImageFix"/>
<feColorMatrix in="SourceAlpha" type="matrix" values="0 0 0 0 0 0 0 0 0 0 0 0 0 0 0 0 0 0 127 0" result="hardAlpha"/>
<feOffset dy="11"/>
<feGaussianBlur stdDeviation="11"/>
<feColorMatrix type="matrix" values="0 0 0 0 0.397708 0 0 0 0 0.47749 0 0 0 0 0.575 0 0 0 0.27 0"/>
<feBlend mode="normal" in2="BackgroundImageFix" result="effect1_dropShadow_1081_25225"/>
<feBlend mode="normal" in="SourceGraphic" in2="effect1_dropShadow_1081_25225" result="shape"/>
</filter>
<linearGradient id="paint0_linear_1081_25225" x1="51.4131" y1="61.4547" x2="59.6323" y2="61.6298" gradientUnits="userSpaceOnUse">
<stop stop-color="#FDFEFF"/>
<stop offset="0.9964" stop-color="#ECF0F5"/>
</linearGradient>
<linearGradient id="paint1_linear_1081_25225" x1="62.5159" y1="60.0582" x2="56.2204" y2="59.8831" gradientUnits="userSpaceOnUse">
<stop stop-color="#AAB2C5"/>
<stop offset="1" stop-color="#AAB2C5" stop-opacity="0"/>
</linearGradient>
<linearGradient id="paint2_linear_1081_25225" x1="69.2512" y1="28.0964" x2="83.9407" y2="28.9719" gradientUnits="userSpaceOnUse">
<stop stop-color="#B0BACC"/>
<stop offset="1" stop-color="#969EAE"/>
</linearGradient>
<linearGradient id="paint3_linear_1081_25225" x1="86.0402" y1="51.5001" x2="78.3457" y2="51.5001" gradientUnits="userSpaceOnUse">
<stop stop-color="#68728A"/>
<stop offset="1" stop-color="#838998" stop-opacity="0"/>
</linearGradient>
<linearGradient id="paint4_linear_1081_25225" x1="78.8704" y1="32.2878" x2="57.8911" y2="24.7608" gradientUnits="userSpaceOnUse">
<stop stop-color="white"/>
<stop offset="1" stop-color="white" stop-opacity="0"/>
</linearGradient>
<linearGradient id="paint5_linear_1081_25225" x1="83.9413" y1="59.8827" x2="93.7344" y2="59.5326" gradientUnits="userSpaceOnUse">
<stop stop-color="#FDFEFF"/>
<stop offset="0.9964" stop-color="#ECF0F5"/>
</linearGradient>
<linearGradient id="paint6_linear_1081_25225" x1="95.1331" y1="60.0582" x2="88.8375" y2="59.8831" gradientUnits="userSpaceOnUse">
<stop stop-color="#AAB2C5"/>
<stop offset="1" stop-color="#AAB2C5" stop-opacity="0"/>
</linearGradient>
<linearGradient id="paint7_linear_1081_25225" x1="59.0262" y1="42.525" x2="59.0262" y2="98.3316" gradientUnits="userSpaceOnUse">
<stop stop-color="#FDFEFF"/>
<stop offset="0.9964" stop-color="#ECF0F5"/>
</linearGradient>
<linearGradient id="paint8_linear_1081_25225" x1="75.4173" y1="70.1062" x2="64.0438" y2="69.2658" gradientUnits="userSpaceOnUse">
<stop stop-color="#AAB2C5"/>
<stop offset="1" stop-color="#AAB2C5" stop-opacity="0"/>
</linearGradient>
<linearGradient id="paint9_linear_1081_25225" x1="87.02" y1="42.5257" x2="87.02" y2="98.3033" gradientUnits="userSpaceOnUse">
<stop stop-color="#FDFEFF"/>
<stop offset="0.9964" stop-color="#ECF0F5"/>
</linearGradient>
<linearGradient id="paint10_linear_1081_25225" x1="79.744" y1="77.3493" x2="83.9018" y2="77.7523" gradientUnits="userSpaceOnUse">
<stop stop-color="#AAB2C5"/>
<stop offset="1" stop-color="#AAB2C5" stop-opacity="0"/>
</linearGradient>
<linearGradient id="paint11_linear_1081_25225" x1="66.1037" y1="70.538" x2="75.7219" y2="70.3629" gradientUnits="userSpaceOnUse">
<stop stop-color="#FDFEFF"/>
<stop offset="0.9964" stop-color="#ECF0F5"/>
</linearGradient>
<linearGradient id="paint12_linear_1081_25225" x1="81.4907" y1="60.0553" x2="74.8507" y2="59.8953" gradientUnits="userSpaceOnUse">
<stop stop-color="#AAB2C5"/>
<stop offset="1" stop-color="#AAB2C5" stop-opacity="0"/>
</linearGradient>
<linearGradient id="paint13_linear_1081_25225" x1="68.5894" y1="84.8143" x2="68.5894" y2="97.9144" gradientUnits="userSpaceOnUse">
<stop stop-color="#FDFEFF"/>
<stop offset="0.9964" stop-color="#ECF0F5"/>
</linearGradient>
<linearGradient id="paint14_linear_1081_25225" x1="74.2026" y1="90.9651" x2="69.4723" y2="90.6391" gradientUnits="userSpaceOnUse">
<stop stop-color="#AAB2C5"/>
<stop offset="1" stop-color="#AAB2C5" stop-opacity="0"/>
</linearGradient>
<linearGradient id="paint15_linear_1081_25225" x1="77.3569" y1="84.8143" x2="77.3569" y2="97.9144" gradientUnits="userSpaceOnUse">
<stop stop-color="#FDFEFF"/>
<stop offset="0.9964" stop-color="#ECF0F5"/>
</linearGradient>
<linearGradient id="paint16_linear_1081_25225" x1="82.954" y1="90.9651" x2="78.5206" y2="91.3226" gradientUnits="userSpaceOnUse">
<stop stop-color="#AAB2C5"/>
<stop offset="1" stop-color="#AAB2C5" stop-opacity="0"/>
</linearGradient>
<linearGradient id="paint17_linear_1081_25225" x1="73.7976" y1="93.9416" x2="75.9041" y2="93.8835" gradientUnits="userSpaceOnUse">
<stop stop-color="#AAB2C5"/>
<stop offset="1" stop-color="#AAB2C5" stop-opacity="0"/>
</linearGradient>
<linearGradient id="paint18_linear_1081_25225" x1="72.9176" y1="81.5071" x2="72.9176" y2="103.981" gradientUnits="userSpaceOnUse">
<stop stop-color="#FDFEFF"/>
<stop offset="0.9964" stop-color="#ECF0F5"/>
</linearGradient>
<linearGradient id="paint19_linear_1081_25225" x1="109.81" y1="26.629" x2="116.404" y2="33.2306" gradientUnits="userSpaceOnUse">
<stop stop-color="#B0BACC"/>
<stop offset="1" stop-color="#969EAE"/>
</linearGradient>
<linearGradient id="paint20_linear_1081_25225" x1="114.381" y1="20.8057" x2="114.381" y2="44.8571" gradientUnits="userSpaceOnUse">
<stop stop-color="#FDFEFF"/>
<stop offset="0.9964" stop-color="#ECF0F5"/>
</linearGradient>
<linearGradient id="paint21_linear_1081_25225" x1="115.777" y1="24.3109" x2="115.777" y2="33.0905" gradientUnits="userSpaceOnUse">
<stop stop-color="#B0BACC"/>
<stop offset="1" stop-color="#969EAE"/>
</linearGradient>
<linearGradient id="paint22_linear_1081_25225" x1="27.4793" y1="34.4407" x2="27.4793" y2="48.7884" gradientUnits="userSpaceOnUse">
<stop stop-color="#B0BACC"/>
<stop offset="1" stop-color="#969EAE"/>
</linearGradient>
<clipPath id="clip0_1081_25225">
<rect width="142" height="153" fill="white" transform="translate(0 0.5)"/>
</clipPath>
</defs>
</svg>
