<svg width="234" height="54" viewBox="0 0 234 54" fill="none" xmlns="http://www.w3.org/2000/svg">
<circle cx="25.2058" cy="27.3357" r="11.5632" fill="white"/>
<path d="M28.2768 44.5753H11.2104C11.2104 44.5753 7.80531 45.5976 7.80531 49.2876C7.80531 52.9777 11.2104 54 11.2104 54H28.2768C42.1185 54 50.2031 40.2731 50.2031 34.5138C50.2031 34.5138 49.6183 30.9889 45.417 30.9889C41.2156 30.9889 40.6308 34.5138 40.6308 34.5138C40.6308 35.7762 36.7123 44.0986 28.2768 44.5753Z" fill="white"/>
<path d="M22.5807 9.42473L39.647 9.42473C39.647 9.42473 43.0521 8.40242 43.0521 4.71237C43.0521 1.02232 39.647 6.81771e-06 39.647 6.81771e-06L22.5807 3.83373e-06C8.73889 1.41355e-06 0.654294 13.7269 0.654293 19.4862C0.654293 19.4862 1.23908 23.0111 5.44046 23.0111C9.64184 23.0111 10.2266 19.4862 10.2266 19.4862C10.2266 18.2238 14.1451 9.90137 22.5807 9.42473Z" fill="white"/>
<path d="M222.871 16.7852C223.896 16.7852 224.836 16.9438 225.69 17.2612C226.545 17.5785 227.277 17.9813 227.887 18.4696C228.522 18.9578 229.01 19.4583 229.352 19.9709C229.718 20.4591 229.901 20.8742 229.901 21.2159L228.949 21.6919V19.0188C228.949 18.3841 229.157 17.8593 229.572 17.4443C229.987 17.0049 230.512 16.7852 231.146 16.7852C231.781 16.7852 232.306 16.9927 232.721 17.4077C233.136 17.8227 233.343 18.3597 233.343 19.0188V35.3138C233.343 37.4376 232.88 39.1343 231.952 40.4037C231.049 41.6975 229.853 42.6252 228.363 43.1866C226.874 43.7725 225.275 44.0655 223.567 44.0655C223.078 44.0655 222.444 44.0044 221.662 43.8824C220.881 43.7603 220.137 43.6138 219.429 43.443C218.721 43.2721 218.184 43.1134 217.818 42.9669C217.085 42.6496 216.573 42.2468 216.28 41.7585C216.011 41.2947 215.962 40.7943 216.133 40.2572C216.353 39.5493 216.707 39.061 217.195 38.7925C217.683 38.5484 218.196 38.524 218.733 38.7193C218.977 38.7925 219.38 38.939 219.941 39.1587C220.503 39.3784 221.113 39.5737 221.772 39.7446C222.456 39.9398 223.054 40.0375 223.567 40.0375C225.397 40.0375 226.752 39.6713 227.631 38.939C228.51 38.2066 228.949 37.1935 228.949 35.8997V32.7139L229.389 33.0435C229.389 33.3608 229.218 33.7514 228.876 34.2153C228.559 34.6547 228.107 35.0941 227.521 35.5335C226.96 35.9729 226.288 36.3513 225.507 36.6687C224.726 36.9616 223.896 37.1081 223.017 37.1081C221.284 37.1081 219.722 36.6809 218.33 35.8264C216.939 34.9476 215.84 33.7514 215.035 32.2379C214.229 30.6999 213.826 28.9423 213.826 26.9649C213.826 24.9631 214.229 23.2055 215.035 21.6919C215.84 20.154 216.926 18.9578 218.294 18.1034C219.661 17.2246 221.186 16.7852 222.871 16.7852ZM223.567 20.8131C222.468 20.8131 221.504 21.0817 220.674 21.6187C219.844 22.1558 219.197 22.8881 218.733 23.8158C218.269 24.7434 218.037 25.7931 218.037 26.9649C218.037 28.1123 218.269 29.1498 218.733 30.0774C219.197 31.0051 219.844 31.7374 220.674 32.2745C221.504 32.8116 222.468 33.0801 223.567 33.0801C224.689 33.0801 225.666 32.8116 226.496 32.2745C227.326 31.7374 227.973 31.0051 228.437 30.0774C228.901 29.1498 229.132 28.1123 229.132 26.9649C229.132 25.7931 228.901 24.7434 228.437 23.8158C227.973 22.8881 227.326 22.1558 226.496 21.6187C225.666 21.0817 224.689 20.8131 223.567 20.8131Z" fill="white"/>
<path d="M195.942 33.7026C195.698 33.3608 195.588 32.9214 195.613 32.3844C195.637 31.8473 195.954 31.3835 196.565 30.9929C196.955 30.7488 197.37 30.6511 197.81 30.6999C198.249 30.7244 198.676 30.9441 199.091 31.3591C199.799 32.067 200.544 32.6163 201.325 33.0069C202.106 33.3975 203.083 33.5928 204.255 33.5928C204.621 33.5683 205.023 33.5195 205.463 33.4463C205.902 33.3486 206.281 33.1533 206.598 32.8604C206.94 32.543 207.111 32.067 207.111 31.4323C207.111 30.8952 206.928 30.468 206.561 30.1507C206.195 29.8333 205.707 29.5648 205.097 29.3451C204.511 29.1254 203.852 28.9179 203.119 28.7226C202.363 28.5029 201.581 28.2588 200.776 27.9902C199.995 27.7217 199.274 27.3799 198.615 26.9649C197.956 26.5255 197.419 25.9518 197.004 25.2439C196.589 24.5359 196.382 23.6449 196.382 22.5708C196.382 21.3502 196.723 20.3127 197.407 19.4583C198.091 18.6038 198.969 17.9447 200.043 17.4809C201.142 17.0171 202.289 16.7852 203.486 16.7852C204.242 16.7852 205.036 16.8828 205.866 17.0781C206.696 17.249 207.489 17.5419 208.246 17.9569C209.003 18.3475 209.637 18.8724 210.15 19.5315C210.419 19.8977 210.577 20.3371 210.626 20.8497C210.675 21.3624 210.443 21.8262 209.93 22.2412C209.564 22.5342 209.137 22.6684 208.649 22.644C208.16 22.5952 207.758 22.4243 207.44 22.1314C207.025 21.5943 206.464 21.1671 205.756 20.8497C205.072 20.5324 204.279 20.3737 203.376 20.3737C203.01 20.3737 202.607 20.4225 202.167 20.5202C201.752 20.5934 201.386 20.7765 201.069 21.0694C200.751 21.338 200.593 21.7774 200.593 22.3877C200.593 22.9492 200.776 23.4008 201.142 23.7426C201.508 24.0599 201.996 24.3284 202.607 24.5481C203.241 24.7434 203.913 24.9387 204.621 25.134C205.353 25.3293 206.098 25.5612 206.854 25.8298C207.611 26.0983 208.307 26.4523 208.942 26.8917C209.576 27.3311 210.089 27.9048 210.48 28.6127C210.87 29.2963 211.065 30.1751 211.065 31.2492C211.065 32.4942 210.699 33.5561 209.967 34.435C209.235 35.3138 208.319 35.9851 207.221 36.4489C206.122 36.8884 204.999 37.1081 203.852 37.1081C202.411 37.1081 200.971 36.864 199.531 36.3757C198.091 35.8631 196.894 34.972 195.942 33.7026Z" fill="white"/>
<path d="M189.9 36.7061C189.192 36.7061 188.643 36.523 188.252 36.1568C187.886 35.7662 187.703 35.217 187.703 34.509V33.8865C187.703 33.1786 187.886 32.6415 188.252 32.2753C188.643 31.8847 189.192 31.6895 189.9 31.6895H190.376C191.084 31.6895 191.621 31.8847 191.987 32.2753C192.378 32.6415 192.573 33.1786 192.573 33.8865V34.509C192.573 35.217 192.378 35.7662 191.987 36.1568C191.621 36.523 191.084 36.7061 190.376 36.7061H189.9Z" fill="white"/>
<path d="M169.157 33.7026C168.913 33.3608 168.803 32.9214 168.828 32.3844C168.852 31.8473 169.169 31.3835 169.78 30.9929C170.17 30.7488 170.585 30.6511 171.025 30.6999C171.464 30.7244 171.891 30.9441 172.306 31.3591C173.014 32.067 173.759 32.6163 174.54 33.0069C175.321 33.3975 176.298 33.5928 177.469 33.5928C177.836 33.5683 178.238 33.5195 178.678 33.4463C179.117 33.3486 179.496 33.1533 179.813 32.8604C180.155 32.543 180.326 32.067 180.326 31.4323C180.326 30.8952 180.142 30.468 179.776 30.1507C179.41 29.8333 178.922 29.5648 178.312 29.3451C177.726 29.1254 177.067 28.9179 176.334 28.7226C175.577 28.5029 174.796 28.2588 173.991 27.9902C173.209 27.7217 172.489 27.3799 171.83 26.9649C171.171 26.5255 170.634 25.9518 170.219 25.2439C169.804 24.5359 169.597 23.6449 169.597 22.5708C169.597 21.3502 169.938 20.3127 170.622 19.4583C171.305 18.6038 172.184 17.9447 173.258 17.4809C174.357 17.0171 175.504 16.7852 176.7 16.7852C177.457 16.7852 178.251 16.8828 179.081 17.0781C179.911 17.249 180.704 17.5419 181.461 17.9569C182.217 18.3475 182.852 18.8724 183.365 19.5315C183.633 19.8977 183.792 20.3371 183.841 20.8497C183.89 21.3624 183.658 21.8262 183.145 22.2412C182.779 22.5342 182.352 22.6684 181.864 22.644C181.375 22.5952 180.972 22.4243 180.655 22.1314C180.24 21.5943 179.679 21.1671 178.971 20.8497C178.287 20.5324 177.494 20.3737 176.591 20.3737C176.224 20.3737 175.822 20.4225 175.382 20.5202C174.967 20.5934 174.601 20.7765 174.284 21.0694C173.966 21.338 173.808 21.7774 173.808 22.3877C173.808 22.9492 173.991 23.4008 174.357 23.7426C174.723 24.0599 175.211 24.3284 175.822 24.5481C176.456 24.7434 177.128 24.9387 177.836 25.134C178.568 25.3293 179.312 25.5612 180.069 25.8298C180.826 26.0983 181.522 26.4523 182.156 26.8917C182.791 27.3311 183.304 27.9048 183.694 28.6127C184.085 29.2963 184.28 30.1751 184.28 31.2492C184.28 32.4942 183.914 33.5561 183.182 34.435C182.449 35.3138 181.534 35.9851 180.435 36.4489C179.337 36.8884 178.214 37.1081 177.067 37.1081C175.626 37.1081 174.186 36.864 172.746 36.3757C171.305 35.8631 170.109 34.972 169.157 33.7026Z" fill="white"/>
<path d="M156.613 36.7419C155.978 36.7419 155.454 36.5344 155.039 36.1194C154.624 35.68 154.416 35.1429 154.416 34.5082V19.385C154.416 18.7503 154.624 18.2255 155.039 17.8105C155.454 17.371 155.978 17.1513 156.613 17.1513C157.248 17.1513 157.773 17.371 158.188 17.8105C158.603 18.2255 158.81 18.7503 158.81 19.385V22.8271L158.554 20.3737C158.822 19.7878 159.164 19.2752 159.579 18.8358C160.019 18.3719 160.507 17.9935 161.044 17.7006C161.581 17.3832 162.155 17.1513 162.765 17.0049C163.375 16.8584 163.985 16.7852 164.596 16.7852C165.328 16.7852 165.938 16.9927 166.427 17.4077C166.939 17.8227 167.196 18.3109 167.196 18.8724C167.196 19.678 166.988 20.2639 166.573 20.63C166.158 20.9718 165.707 21.1427 165.218 21.1427C164.754 21.1427 164.327 21.0572 163.937 20.8864C163.57 20.7155 163.143 20.63 162.655 20.63C162.216 20.63 161.764 20.7399 161.3 20.9596C160.861 21.1549 160.446 21.4722 160.055 21.9117C159.689 22.3511 159.384 22.9003 159.14 23.5595C158.92 24.1942 158.81 24.9509 158.81 25.8298V34.5082C158.81 35.1429 158.603 35.68 158.188 36.1194C157.773 36.5344 157.248 36.7419 156.613 36.7419Z" fill="white"/>
<path d="M142.045 37.1081C139.97 37.1081 138.164 36.6809 136.626 35.8264C135.113 34.9476 133.941 33.7636 133.111 32.2745C132.305 30.7854 131.902 29.101 131.902 27.2212C131.902 25.0242 132.342 23.1567 133.221 21.6187C134.124 20.0564 135.296 18.8602 136.736 18.0302C138.176 17.2002 139.702 16.7852 141.313 16.7852C142.558 16.7852 143.73 17.0415 144.828 17.5541C145.951 18.0668 146.94 18.7747 147.794 19.678C148.649 20.5568 149.32 21.5821 149.808 22.7539C150.321 23.9256 150.577 25.1706 150.577 26.4889C150.553 27.0748 150.321 27.5508 149.882 27.917C149.442 28.2832 148.93 28.4663 148.344 28.4663H134.356L133.257 24.8045H146.696L145.89 25.5368V24.5481C145.842 23.8402 145.585 23.2055 145.121 22.644C144.682 22.0825 144.121 21.6431 143.437 21.3258C142.778 20.984 142.07 20.8131 141.313 20.8131C140.581 20.8131 139.897 20.9108 139.263 21.1061C138.628 21.3014 138.079 21.6309 137.615 22.0947C137.151 22.5586 136.785 23.1811 136.516 23.9623C136.248 24.7434 136.113 25.7321 136.113 26.9283C136.113 28.2465 136.382 29.3695 136.919 30.2971C137.48 31.2004 138.188 31.8961 139.043 32.3844C139.922 32.8482 140.849 33.0801 141.826 33.0801C142.729 33.0801 143.449 33.0069 143.986 32.8604C144.523 32.7139 144.951 32.543 145.268 32.3477C145.61 32.128 145.915 31.945 146.183 31.7985C146.623 31.5788 147.038 31.4689 147.428 31.4689C147.965 31.4689 148.405 31.652 148.747 32.0182C149.113 32.3844 149.296 32.8116 149.296 33.2998C149.296 33.9589 148.954 34.557 148.271 35.0941C147.636 35.6312 146.745 36.1072 145.597 36.5222C144.45 36.9128 143.266 37.1081 142.045 37.1081Z" fill="white"/>
<path d="M113.313 17.1523C113.777 17.1523 114.204 17.2744 114.594 17.5185C114.985 17.7382 115.278 18.08 115.473 18.5438L120.856 30.8474L120.05 31.2136L125.543 18.5804C125.958 17.604 126.605 17.1401 127.484 17.189C128.094 17.189 128.582 17.3843 128.949 17.7748C129.339 18.141 129.535 18.6049 129.535 19.1663C129.535 19.3372 129.498 19.5203 129.425 19.7156C129.376 19.9109 129.315 20.094 129.242 20.2649L122.394 35.3514C122.003 36.2302 121.381 36.6941 120.527 36.7429C120.063 36.8161 119.611 36.7307 119.172 36.4866C118.757 36.2425 118.439 35.8641 118.22 35.3514L111.409 20.2649C111.36 20.1428 111.299 19.9841 111.226 19.7888C111.177 19.5935 111.152 19.3616 111.152 19.0931C111.152 18.6537 111.348 18.2265 111.738 17.8115C112.129 17.3721 112.654 17.1523 113.313 17.1523Z" fill="white"/>
<path d="M107.918 34.5086C107.918 35.1433 107.711 35.6804 107.296 36.1198C106.881 36.5348 106.356 36.7423 105.721 36.7423C105.086 36.7423 104.561 36.5348 104.146 36.1198C103.731 35.6804 103.524 35.1433 103.524 34.5086V19.3854C103.524 18.7507 103.731 18.2259 104.146 17.8109C104.561 17.3715 105.086 17.1518 105.721 17.1518C106.356 17.1518 106.881 17.3715 107.296 17.8109C107.711 18.2259 107.918 18.7507 107.918 19.3854V34.5086ZM105.684 14.7716C104.854 14.7716 104.268 14.6373 103.927 14.3688C103.585 14.1003 103.414 13.6242 103.414 12.9407V12.245C103.414 11.537 103.597 11.061 103.963 10.8169C104.354 10.5483 104.94 10.4141 105.721 10.4141C106.575 10.4141 107.173 10.5483 107.515 10.8169C107.857 11.0854 108.028 11.5614 108.028 12.245V12.9407C108.028 13.6486 107.845 14.1369 107.479 14.4054C107.112 14.6495 106.514 14.7716 105.684 14.7716Z" fill="white"/>
<path d="M90.0994 36.7419C89.4647 36.7419 88.9399 36.5344 88.5248 36.1194C88.1098 35.68 87.9023 35.1429 87.9023 34.5082V19.385C87.9023 18.7503 88.1098 18.2255 88.5248 17.8105C88.9399 17.371 89.4647 17.1513 90.0994 17.1513C90.7341 17.1513 91.259 17.371 91.674 17.8105C92.089 18.2255 92.2965 18.7503 92.2965 19.385V22.8271L92.0402 20.3737C92.3087 19.7878 92.6505 19.2752 93.0655 18.8358C93.5049 18.3719 93.9931 17.9935 94.5302 17.7006C95.0672 17.3832 95.6409 17.1513 96.2512 17.0049C96.8615 16.8584 97.4718 16.7852 98.0821 16.7852C98.8145 16.7852 99.4248 16.9927 99.913 17.4077C100.426 17.8227 100.682 18.3109 100.682 18.8724C100.682 19.678 100.474 20.2639 100.059 20.63C99.6445 20.9718 99.1929 21.1427 98.7046 21.1427C98.2408 21.1427 97.8136 21.0572 97.423 20.8864C97.0568 20.7155 96.6296 20.63 96.1414 20.63C95.7019 20.63 95.2503 20.7399 94.7865 20.9596C94.3471 21.1549 93.9321 21.4722 93.5415 21.9117C93.1753 22.3511 92.8702 22.9003 92.626 23.5595C92.4063 24.1942 92.2965 24.9509 92.2965 25.8298V34.5082C92.2965 35.1429 92.089 35.68 91.674 36.1194C91.259 36.5344 90.7341 36.7419 90.0994 36.7419Z" fill="white"/>
<path d="M80.9482 9.64551C81.5829 9.64551 82.1078 9.85301 82.5228 10.268C82.9378 10.683 83.1453 11.2201 83.1453 11.8792V34.509C83.1453 35.1437 82.9378 35.6808 82.5228 36.1202C82.1078 36.5352 81.5829 36.7427 80.9482 36.7427C80.3135 36.7427 79.7886 36.5352 79.3736 36.1202C78.9586 35.6808 78.7511 35.1437 78.7511 34.509V32.7148L79.5567 33.0443C79.5567 33.3617 79.3858 33.7523 79.0441 34.2161C78.7023 34.6555 78.2385 35.0949 77.6526 35.5343C77.0667 35.9737 76.371 36.3521 75.5654 36.6695C74.7842 36.9624 73.9298 37.1089 73.0021 37.1089C71.3177 37.1089 69.792 36.6817 68.4249 35.8273C67.0578 34.9484 65.9715 33.7523 65.1659 32.2387C64.3847 30.7008 63.9941 28.9431 63.9941 26.9658C63.9941 24.964 64.3847 23.2063 65.1659 21.6928C65.9715 20.1548 67.0456 18.9586 68.3883 18.1042C69.7309 17.2254 71.2201 16.786 72.8557 16.786C73.9054 16.786 74.8696 16.9447 75.7485 17.262C76.6273 17.5794 77.3841 17.9822 78.0188 18.4704C78.6779 18.9586 79.1783 19.4591 79.5201 19.9717C79.8863 20.46 80.0694 20.875 80.0694 21.2168L78.7511 21.6928V11.8792C78.7511 11.2445 78.9586 10.7196 79.3736 10.3046C79.7886 9.86521 80.3135 9.64551 80.9482 9.64551ZM73.5514 33.0809C74.6255 33.0809 75.5654 32.8124 76.371 32.2753C77.1766 31.7383 77.7991 31.0059 78.2385 30.0783C78.7023 29.1506 78.9342 28.1131 78.9342 26.9658C78.9342 25.794 78.7023 24.7443 78.2385 23.8166C77.7991 22.889 77.1766 22.1566 76.371 21.6195C75.5654 21.0825 74.6255 20.814 73.5514 20.814C72.5017 20.814 71.574 21.0825 70.7684 21.6195C69.9629 22.1566 69.3281 22.889 68.8643 23.8166C68.4249 24.7443 68.2052 25.794 68.2052 26.9658C68.2052 28.1131 68.4249 29.1506 68.8643 30.0783C69.3281 31.0059 69.9629 31.7383 70.7684 32.2753C71.574 32.8124 72.5017 33.0809 73.5514 33.0809Z" fill="white"/>
</svg>
