<svg width="25" height="24" viewBox="0 0 25 24" fill="none" xmlns="http://www.w3.org/2000/svg">
<path d="M19.4458 3.26439H18.2958V2.50039C18.2958 2.34126 18.2326 2.18865 18.1201 2.07613C18.0076 1.9636 17.855 1.90039 17.6958 1.90039C17.5367 1.90039 17.3841 1.9636 17.2716 2.07613C17.1591 2.18865 17.0958 2.34126 17.0958 2.50039V3.26439H8.25184V2.50039C8.25184 2.34126 8.18863 2.18865 8.07611 2.07613C7.96359 1.9636 7.81097 1.90039 7.65184 1.90039C7.49271 1.90039 7.3401 1.9636 7.22758 2.07613C7.11506 2.18865 7.05184 2.34126 7.05184 2.50039V3.26439H5.90084C5.15547 3.26545 4.44095 3.56208 3.91398 4.08924C3.38702 4.61639 3.09064 5.33102 3.08984 6.07639V19.2894C3.0909 20.0346 3.3874 20.749 3.91434 21.2759C4.44127 21.8028 5.15565 22.0993 5.90084 22.1004H19.4458C20.1915 22.0999 20.9064 21.8034 21.4336 21.2762C21.9609 20.749 22.2573 20.034 22.2578 19.2884V6.07639C22.2573 5.33076 21.9609 4.61583 21.4336 4.08859C20.9064 3.56135 20.1915 3.26492 19.4458 3.26439ZM21.0578 19.2884C21.0573 19.7158 20.8873 20.1255 20.5851 20.4277C20.2829 20.7299 19.8732 20.8999 19.4458 20.9004H5.90084C5.47374 20.8999 5.06429 20.73 4.76228 20.428C4.46027 20.1259 4.29037 19.7165 4.28984 19.2894V9.06839H21.0588L21.0578 19.2884ZM21.0578 7.86839H4.28984V6.07639C4.29011 5.64912 4.45989 5.2394 4.76193 4.93718C5.06396 4.63496 5.47357 4.46492 5.90084 4.46439H7.05184V5.15439C7.05184 5.31352 7.11506 5.46613 7.22758 5.57865C7.3401 5.69118 7.49271 5.75439 7.65184 5.75439C7.81097 5.75439 7.96359 5.69118 8.07611 5.57865C8.18863 5.46613 8.25184 5.31352 8.25184 5.15439V4.46439H17.0968V5.15439C17.0968 5.31352 17.1601 5.46613 17.2726 5.57865C17.3851 5.69118 17.5377 5.75439 17.6968 5.75439C17.856 5.75439 18.0086 5.69118 18.1211 5.57865C18.2336 5.46613 18.2968 5.31352 18.2968 5.15439V4.46439H19.4468C19.874 4.46492 20.2836 4.63479 20.5858 4.93676C20.8879 5.23874 21.0581 5.6482 21.0588 6.07539L21.0578 7.86839ZM6.48884 12.7214C6.48884 12.4742 6.56216 12.2325 6.69951 12.0269C6.83686 11.8214 7.03208 11.6612 7.26049 11.5665C7.4889 11.4719 7.74023 11.4472 7.98271 11.4954C8.22518 11.5436 8.44791 11.6627 8.62273 11.8375C8.79754 12.0123 8.91659 12.2351 8.96483 12.4775C9.01306 12.72 8.9883 12.9713 8.89369 13.1997C8.79908 13.4282 8.63887 13.6234 8.43331 13.7607C8.22775 13.8981 7.98607 13.9714 7.73884 13.9714C7.40732 13.9714 7.08938 13.8397 6.85496 13.6053C6.62054 13.3709 6.48884 13.0529 6.48884 12.7214ZM11.4238 12.7214C11.4238 12.4742 11.4972 12.2325 11.6345 12.0269C11.7719 11.8214 11.9671 11.6612 12.1955 11.5665C12.4239 11.4719 12.6752 11.4472 12.9177 11.4954C13.1602 11.5436 13.3829 11.6627 13.5577 11.8375C13.7325 12.0123 13.8516 12.2351 13.8998 12.4775C13.9481 12.72 13.9233 12.9713 13.8287 13.1997C13.7341 13.4282 13.5739 13.6234 13.3683 13.7607C13.1627 13.8981 12.9211 13.9714 12.6738 13.9714C12.3423 13.9714 12.0244 13.8397 11.79 13.6053C11.5555 13.3709 11.4238 13.0529 11.4238 12.7214ZM16.3588 12.7214C16.3588 12.4742 16.4322 12.2325 16.5695 12.0269C16.7069 11.8214 16.9021 11.6612 17.1305 11.5665C17.3589 11.4719 17.6102 11.4472 17.8527 11.4954C18.0952 11.5436 18.3179 11.6627 18.4927 11.8375C18.6675 12.0123 18.7866 12.2351 18.8348 12.4775C18.8831 12.72 18.8583 12.9713 18.7637 13.1997C18.6691 13.4282 18.5089 13.6234 18.3033 13.7607C18.0977 13.8981 17.8561 13.9714 17.6088 13.9714C17.2773 13.9714 16.9594 13.8397 16.725 13.6053C16.4905 13.3709 16.3588 13.0529 16.3588 12.7214ZM6.48884 16.8004C6.48884 16.5532 6.56216 16.3115 6.69951 16.1059C6.83686 15.9004 7.03208 15.7402 7.26049 15.6455C7.4889 15.5509 7.74023 15.5262 7.98271 15.5744C8.22518 15.6226 8.44791 15.7417 8.62273 15.9165C8.79754 16.0913 8.91659 16.3141 8.96483 16.5565C9.01306 16.799 8.9883 17.0503 8.89369 17.2787C8.79908 17.5072 8.63887 17.7024 8.43331 17.8397C8.22775 17.9771 7.98607 18.0504 7.73884 18.0504C7.40732 18.0504 7.08938 17.9187 6.85496 17.6843C6.62054 17.4499 6.48884 17.1319 6.48884 16.8004ZM11.4238 16.8004C11.4234 16.5531 11.4964 16.3112 11.6335 16.1054C11.7706 15.8996 11.9657 15.739 12.1941 15.6441C12.4225 15.5492 12.6739 15.5242 12.9165 15.5722C13.1591 15.6202 13.382 15.7391 13.557 15.9138C13.732 16.0885 13.8513 16.3113 13.8997 16.5538C13.9481 16.7963 13.9234 17.0478 13.8289 17.2763C13.7343 17.5048 13.5741 17.7001 13.3685 17.8376C13.1629 17.975 12.9212 18.0484 12.6738 18.0484C12.3427 18.0484 12.025 17.917 11.7907 17.683C11.5563 17.449 11.4244 17.1316 11.4238 16.8004ZM16.3588 16.8004C16.3588 16.5532 16.4322 16.3115 16.5695 16.1059C16.7069 15.9004 16.9021 15.7402 17.1305 15.6455C17.3589 15.5509 17.6102 15.5262 17.8527 15.5744C18.0952 15.6226 18.3179 15.7417 18.4927 15.9165C18.6675 16.0913 18.7866 16.3141 18.8348 16.5565C18.8831 16.799 18.8583 17.0503 18.7637 17.2787C18.6691 17.5072 18.5089 17.7024 18.3033 17.8397C18.0977 17.9771 17.8561 18.0504 17.6088 18.0504C17.2773 18.0504 16.9594 17.9187 16.725 17.6843C16.4905 17.4499 16.3588 17.1319 16.3588 16.8004Z" fill="url(#paint0_linear_1075_11970)"/>
<defs>
<linearGradient id="paint0_linear_1075_11970" x1="3.08984" y1="12.0004" x2="22.2578" y2="12.0004" gradientUnits="userSpaceOnUse">
<stop stop-color="#002395"/>
<stop offset="1" stop-color="#FF0020"/>
</linearGradient>
</defs>
</svg>
