<svg width="28" height="28" viewBox="0 0 28 28" fill="none" xmlns="http://www.w3.org/2000/svg">
<path d="M6.36293 19.7259C6.71438 19.7259 6.99929 19.4409 6.99929 19.0895C6.99929 18.738 6.71438 18.4531 6.36293 18.4531C6.01147 18.4531 5.72656 18.738 5.72656 19.0895C5.72656 19.4409 6.01147 19.7259 6.36293 19.7259Z" fill="#909090"/>
<path d="M21.6364 19.7259C21.9878 19.7259 22.2727 19.4409 22.2727 19.0895C22.2727 18.738 21.9878 18.4531 21.6364 18.4531C21.2849 18.4531 21 18.738 21 19.0895C21 19.4409 21.2849 19.7259 21.6364 19.7259Z" fill="#909090"/>
<path d="M13.9996 14.636C14.3511 14.636 14.636 14.3511 14.636 13.9996C14.636 13.6482 14.3511 13.3633 13.9996 13.3633C13.6482 13.3633 13.3633 13.6482 13.3633 13.9996C13.3633 14.3511 13.6482 14.636 13.9996 14.636Z" fill="#909090"/>
<path d="M25.4545 11.7084L22.2727 11.072C21.6364 10.9447 21.0636 10.6266 20.6182 10.1811L17.2455 6.80838C16.5455 6.10838 15.5909 5.72656 14.5727 5.72656H8.59091C7.38182 5.72656 6.23636 6.29929 5.53636 7.25384L4.13636 9.16293C3.94545 9.41747 4.00909 9.86293 4.26364 10.0538C4.51818 10.2447 4.9 10.1811 5.09091 9.92656L6.49091 8.01747C7 7.38111 7.7 6.99929 8.52727 6.99929H14.5091C15.2091 6.99929 15.8455 7.25384 16.2909 7.76293L19.6636 11.1357C20.3 11.772 21.0636 12.1538 21.9545 12.3447L25.1364 12.9811C26.0273 13.172 26.6636 13.9357 26.6636 14.8266V17.8175C26.6636 18.1993 26.4091 18.4538 26.0273 18.4538H24.6909C24.3727 16.9902 23.1 15.9084 21.5727 15.9084C20.0455 15.9084 18.7727 16.9902 18.4545 18.4538H12.0909V12.0902H17.8182C18.2 12.0902 18.4545 11.8357 18.4545 11.4538C18.4545 11.072 18.2 10.8175 17.8182 10.8175H12.0909V8.27202C12.0909 7.8902 11.8364 7.63565 11.4545 7.63565C11.0727 7.63565 10.8182 7.8902 10.8182 8.27202V10.8175H1.90909C0.827273 10.8175 0 11.6447 0 12.7266V16.5447C0 18.3266 1.4 19.7266 3.18182 19.7266H3.24545C3.56364 21.1902 4.83636 22.272 6.36364 22.272C8.14545 22.272 9.54545 20.872 9.54545 19.0902C9.54545 17.3084 8.14545 15.9084 6.36364 15.9084C4.83636 15.9084 3.56364 16.9902 3.24545 18.4538H3.18182C2.1 18.4538 1.27273 17.6266 1.27273 16.5447V12.7266C1.27273 12.3447 1.52727 12.0902 1.90909 12.0902H10.8182V19.0902C10.8182 19.472 11.0727 19.7266 11.4545 19.7266H18.5182C18.8364 21.1902 20.1091 22.272 21.6364 22.272C23.1636 22.272 24.4364 21.1902 24.7545 19.7266H26.0909C27.1727 19.7266 28 18.8993 28 17.8175V14.8266C28 13.2993 26.9182 11.9629 25.4545 11.7084ZM6.36364 17.1811C7.44545 17.1811 8.27273 18.0084 8.27273 19.0902C8.27273 20.172 7.44545 20.9993 6.36364 20.9993C5.28182 20.9993 4.45455 20.172 4.45455 19.0902C4.45455 18.0084 5.28182 17.1811 6.36364 17.1811ZM21.6364 20.9993C20.5545 20.9993 19.7273 20.172 19.7273 19.0902C19.7273 18.0084 20.5545 17.1811 21.6364 17.1811C22.7182 17.1811 23.5455 18.0084 23.5455 19.0902C23.5455 20.172 22.7182 20.9993 21.6364 20.9993Z" fill="#909090"/>
</svg>
