<svg width="25" height="24" viewBox="0 0 25 24" fill="none" xmlns="http://www.w3.org/2000/svg">
<path d="M19.7447 4.93067C18.3463 3.53165 16.5645 2.57876 14.6246 2.19251C12.6846 1.80626 10.6737 2.00401 8.84617 2.76074C7.01862 3.51747 5.45655 4.79919 4.35752 6.44379C3.25849 8.08839 2.67188 10.022 2.67188 12C2.67188 13.978 3.25849 15.9116 4.35752 17.5562C5.45655 19.2008 7.01862 20.4825 8.84617 21.2393C10.6737 21.996 12.6846 22.1937 14.6246 21.8075C16.5645 21.4212 18.3463 20.4683 19.7447 19.0693C20.6738 18.1414 21.4108 17.0394 21.9137 15.8264C22.4166 14.6134 22.6755 13.3131 22.6755 12C22.6755 10.6869 22.4166 9.38663 21.9137 8.17361C21.4108 6.9606 20.6738 5.85861 19.7447 4.93067ZM18.8047 18.124C17.5928 19.3365 16.0486 20.1624 14.3673 20.4971C12.686 20.8319 10.9432 20.6605 9.35927 20.0047C7.77539 19.3489 6.42157 18.2381 5.46907 16.8127C4.51656 15.3874 4.00816 13.7116 4.00816 11.9973C4.00816 10.283 4.51656 8.60725 5.46907 7.18193C6.42157 5.7566 7.77539 4.64578 9.35927 3.98995C10.9432 3.33412 12.686 3.16276 14.3673 3.49753C16.0486 3.8323 17.5928 4.65816 18.8047 5.87067C19.6099 6.67485 20.2487 7.62988 20.6846 8.68115C21.1205 9.73242 21.3448 10.8593 21.3448 11.9973C21.3448 13.1354 21.1205 14.2622 20.6846 15.3135C20.2487 16.3648 19.6099 17.3198 18.8047 18.124ZM15.816 14.1907C15.9374 14.3164 16.0046 14.4848 16.0031 14.6596C16.0016 14.8344 15.9315 15.0016 15.8079 15.1252C15.6843 15.2488 15.5171 15.3189 15.3423 15.3204C15.1675 15.322 14.9991 15.2548 14.8733 15.1333L12.2067 12.4667C12.083 12.3416 12.0129 12.1732 12.0113 11.9973V5.33067C12.0113 5.15386 12.0816 4.98429 12.2066 4.85927C12.3316 4.73424 12.5012 4.664 12.678 4.664C12.8548 4.664 13.0244 4.73424 13.1494 4.85927C13.2744 4.98429 13.3447 5.15386 13.3447 5.33067V11.7213L15.816 14.1907Z" fill="url(#paint0_linear_1075_11975)"/>
<defs>
<linearGradient id="paint0_linear_1075_11975" x1="2.67188" y1="12" x2="22.6755" y2="12" gradientUnits="userSpaceOnUse">
<stop stop-color="#002395"/>
<stop offset="1" stop-color="#FF0020"/>
</linearGradient>
</defs>
</svg>
