<svg width="28" height="28" viewBox="0 0 28 28" fill="none" xmlns="http://www.w3.org/2000/svg">
<path d="M26.1606 13.627L16.2941 3.76981C15.6845 3.16296 14.8594 2.82227 13.9993 2.82227C13.1391 2.82227 12.314 3.16296 11.7045 3.76981L1.83795 13.627C1.77291 13.692 1.72132 13.7692 1.68613 13.8542C1.65093 13.9392 1.63281 14.0303 1.63281 14.1222C1.63281 14.2142 1.65093 14.3053 1.68613 14.3903C1.72132 14.4752 1.77291 14.5524 1.83795 14.6175C1.9693 14.7488 2.14745 14.8226 2.3332 14.8226C2.42518 14.8226 2.51625 14.8045 2.60123 14.7693C2.6862 14.7341 2.76341 14.6825 2.82845 14.6175L4.03129 13.4158L4.78262 22.2078C4.84794 23.0195 5.21763 23.7766 5.81759 24.3272C6.41756 24.8778 7.20346 25.1814 8.01779 25.177H19.9785C20.7932 25.182 21.5797 24.8787 22.1801 24.328C22.7806 23.7773 23.1506 23.0199 23.216 22.2078L23.9696 13.4158L25.1736 14.6186C25.305 14.75 25.4831 14.8238 25.6689 14.8238C25.8546 14.8238 26.0328 14.75 26.1641 14.6186C26.2955 14.4873 26.3693 14.3091 26.3693 14.1234C26.3693 13.9376 26.2955 13.7595 26.1641 13.6281L26.1606 13.627ZM21.816 22.0876C21.7786 22.5495 21.5682 22.9801 21.2268 23.2934C20.8854 23.6066 20.4383 23.7794 19.975 23.777H8.02012C7.5574 23.7785 7.11115 23.6054 6.77051 23.2922C6.42987 22.979 6.21993 22.5489 6.18262 22.0876L5.32862 12.122L12.6973 4.76148C13.0442 4.41652 13.5136 4.22288 14.0028 4.22288C14.492 4.22288 14.9614 4.41652 15.3083 4.76148L22.677 12.1231L21.816 22.0876ZM9.83662 15.1238C9.8357 15.9473 10.079 16.7526 10.5359 17.4377C10.9927 18.1229 11.6425 18.6572 12.4031 18.9729C13.1636 19.2887 14.0007 19.3718 14.8085 19.2117C15.6163 19.0516 16.3585 18.6556 16.9411 18.0736C17.5237 17.4916 17.9206 16.7499 18.0816 15.9423C18.2426 15.1347 18.1605 14.2975 17.8455 13.5366C17.5306 12.7757 16.9971 12.1253 16.3124 11.6677C15.6278 11.2101 14.8228 10.9658 13.9993 10.9658C12.8965 10.967 11.8391 11.4054 11.0588 12.1847C10.2786 12.9641 9.83909 14.021 9.83662 15.1238ZM16.7631 15.1238C16.764 15.6704 16.6028 16.2049 16.2999 16.6598C15.9969 17.1147 15.5658 17.4695 15.0612 17.6794C14.5565 17.8892 14.001 17.9447 13.4648 17.8387C12.9286 17.7327 12.4359 17.4701 12.049 17.084C11.6621 16.698 11.3985 16.2058 11.2914 15.6699C11.1842 15.1339 11.2385 14.5782 11.4473 14.0731C11.6561 13.568 12.01 13.1362 12.4643 12.8323C12.9185 12.5284 13.4527 12.366 13.9993 12.3658C14.7309 12.3667 15.4324 12.6575 15.9501 13.1743C16.4679 13.6912 16.7598 14.3922 16.762 15.1238H16.7631Z" fill="url(#paint0_linear_1075_9087)"/>
<defs>
<linearGradient id="paint0_linear_1075_9087" x1="1.63281" y1="13.9997" x2="26.3693" y2="13.9997" gradientUnits="userSpaceOnUse">
<stop stop-color="#002395"/>
<stop offset="1" stop-color="#FF0020"/>
</linearGradient>
</defs>
</svg>
