<svg width="28" height="28" viewBox="0 0 28 28" fill="none" xmlns="http://www.w3.org/2000/svg">
<path d="M22.1736 2.4668H5.81416C3.96824 2.4668 2.4668 3.969 2.4668 5.81416V22.1728C2.4668 24.0187 3.96836 25.5202 5.81416 25.5202H22.1736C24.0188 25.5202 25.5203 24.018 25.5203 22.1728V5.81416C25.5203 3.969 24.0188 2.4668 22.1736 2.4668ZM24.1203 22.1735C24.1203 23.2472 23.2467 24.1208 22.1736 24.1208H5.81416C4.7404 24.1208 3.8668 23.2472 3.8668 22.1735V5.814C3.8668 4.74024 4.7404 3.86664 5.81416 3.86664H22.1736C23.2474 3.86664 24.1203 4.74024 24.1203 5.814V22.1735Z" fill="url(#paint0_linear_1081_24885)"/>
<path d="M18.7736 12.8199L18.1955 10.2677C17.9525 9.19682 16.9019 8.35742 15.8036 8.35742H12.1839C11.0856 8.35742 10.0348 9.19678 9.79203 10.2677L9.21391 12.8199C8.65735 12.9088 8.23047 13.3876 8.23047 13.9687V16.4495C8.23047 17.0936 8.75267 17.6164 9.39735 17.6164H9.61578V18.3465C9.61578 18.6686 9.87766 18.9303 10.1995 18.9303H11.1719C11.4939 18.9303 11.7557 18.6684 11.7557 18.3465V17.6164H16.2309V18.3465C16.2309 18.6686 16.4927 18.9303 16.8146 18.9303H17.7876C18.1096 18.9303 18.3713 18.6684 18.3713 18.3465V17.6164H18.5904C19.2345 17.6164 19.7573 17.0934 19.7573 16.4495V13.9687C19.7571 13.3876 19.3302 12.9081 18.7737 12.8199H18.7736ZM10.6856 16.2793C10.0948 16.2793 9.61527 15.7998 9.61527 15.209C9.61527 14.6182 10.0948 14.1401 10.6856 14.1401C11.2764 14.1401 11.7551 14.6188 11.7551 15.209C11.7559 15.7998 11.2763 16.2793 10.6856 16.2793ZM10.6526 12.8017L11.1567 10.5771C11.254 10.1481 11.7433 9.75666 12.1836 9.75666H15.8033C16.2428 9.75666 16.7328 10.1479 16.8301 10.5763L17.3342 12.8017H10.6526ZM17.3006 16.2793C16.7098 16.2793 16.2303 15.7998 16.2303 15.209C16.2303 14.6182 16.7098 14.1401 17.3006 14.1401C17.8914 14.1401 18.3709 14.6188 18.3709 15.209C18.3709 15.7998 17.8914 16.2793 17.3006 16.2793Z" fill="url(#paint1_linear_1081_24885)"/>
<defs>
<linearGradient id="paint0_linear_1081_24885" x1="2.4668" y1="13.9935" x2="25.5203" y2="13.9935" gradientUnits="userSpaceOnUse">
<stop stop-color="#002395"/>
<stop offset="1" stop-color="#FF0020"/>
</linearGradient>
<linearGradient id="paint1_linear_1081_24885" x1="8.23047" y1="13.6439" x2="19.7573" y2="13.6439" gradientUnits="userSpaceOnUse">
<stop stop-color="#002395"/>
<stop offset="1" stop-color="#FF0020"/>
</linearGradient>
</defs>
</svg>
