<svg width="30" height="33" viewBox="0 0 30 33" fill="none" xmlns="http://www.w3.org/2000/svg">
<circle cx="14.7716" cy="16.7032" r="6.95712" fill="#ED2939"/>
<path d="M16.6198 27.0756H6.35169C6.35169 27.0756 4.30299 27.6907 4.30299 29.9109C4.30299 32.131 6.35169 32.7461 6.35169 32.7461H16.6198C24.9478 32.7461 29.812 24.4872 29.812 21.022C29.812 21.022 29.4602 18.9013 26.9324 18.9013C24.4046 18.9013 24.0527 21.022 24.0527 21.022C24.0527 21.7816 21.6951 26.7888 16.6198 27.0756Z" fill="#002395"/>
<path d="M13.1922 5.92633L23.4603 5.92633C23.4603 5.92633 25.509 5.31125 25.509 3.0911C25.509 0.870947 23.4603 0.255863 23.4603 0.255863L13.1922 0.255862C4.86417 0.25586 -1.44403e-06 8.51476 -2.0499e-06 11.9799C-2.0499e-06 11.9799 0.35184 14.1007 2.87964 14.1007C5.40743 14.1007 5.75928 11.9799 5.75928 11.9799C5.75928 11.2204 8.11689 6.21311 13.1922 5.92633Z" fill="#002395"/>
</svg>
