<svg width="84" height="60" viewBox="0 0 84 60" fill="none" xmlns="http://www.w3.org/2000/svg">
<rect x="1" y="1" width="82" height="58" rx="19" fill="url(#paint0_linear_1081_24894)"/>
<rect x="1" y="1" width="82" height="58" rx="19" stroke="white" stroke-width="2"/>
<ellipse cx="41.8679" cy="30.198" rx="6.85228" ry="6.85228" fill="white"/>
<path d="M43.6882 40.415H33.5748C33.5748 40.415 31.557 41.0208 31.557 43.2075C31.557 45.3942 33.5748 46 33.5748 46H43.6882C51.8908 46 56.6816 37.8656 56.6816 34.4526C56.6816 34.4526 56.3351 32.3638 53.8454 32.3638C51.3557 32.3638 51.0091 34.4526 51.0091 34.4526C51.0091 35.2007 48.6871 40.1325 43.6882 40.415Z" fill="white"/>
<path d="M40.3118 19.585L50.4252 19.585C50.4252 19.585 52.443 18.9792 52.443 16.7925C52.443 14.6058 50.4252 14 50.4252 14L40.3118 14C32.1092 14 27.3184 22.1344 27.3184 25.5474C27.3184 25.5474 27.6649 27.6362 30.1546 27.6362C32.6443 27.6362 32.9909 25.5474 32.9909 25.5474C32.9909 24.7993 35.3129 19.8675 40.3118 19.585Z" fill="white"/>
<defs>
<linearGradient id="paint0_linear_1081_24894" x1="0" y1="30" x2="84" y2="30" gradientUnits="userSpaceOnUse">
<stop stop-color="#002395"/>
<stop offset="1" stop-color="#FF0020"/>
</linearGradient>
</defs>
</svg>
