<svg width="22" height="22" viewBox="0 0 22 22" fill="none" xmlns="http://www.w3.org/2000/svg">
<circle cx="11" cy="11" r="10.5" fill="url(#paint0_linear_1090_974)" stroke="white"/>
<circle cx="10.9504" cy="11.0725" r="2.47779" fill="white"/>
<path d="M11.6102 14.7666H7.95315C7.95315 14.7666 7.2235 14.9856 7.2235 15.7764C7.2235 16.5671 7.95315 16.7861 7.95315 16.7861H11.6102C14.5762 16.7861 16.3086 13.8447 16.3086 12.6106C16.3086 12.6106 16.1833 11.8553 15.283 11.8553C14.3827 11.8553 14.2574 12.6106 14.2574 12.6106C14.2574 12.8811 13.4177 14.6644 11.6102 14.7666Z" fill="white"/>
<path d="M10.3898 7.23439L14.0468 7.23439C14.0468 7.23439 14.7765 7.01533 14.7765 6.22462C14.7765 5.43391 14.0468 5.21485 14.0468 5.21485L10.3898 5.21484C7.42379 5.21484 5.69141 8.15627 5.69141 9.39039C5.69141 9.39039 5.81671 10.1457 6.71699 10.1457C7.61727 10.1457 7.74258 9.39039 7.74258 9.39039C7.74258 9.11987 8.58225 7.33653 10.3898 7.23439Z" fill="white"/>
<defs>
<linearGradient id="paint0_linear_1090_974" x1="0" y1="11" x2="22" y2="11" gradientUnits="userSpaceOnUse">
<stop stop-color="#002395"/>
<stop offset="1" stop-color="#FF0020"/>
</linearGradient>
</defs>
</svg>
