<svg width="20" height="20" viewBox="0 0 20 20" fill="none" xmlns="http://www.w3.org/2000/svg">
<path d="M16.9802 11.9661V18.5903L12.3274 17.5931V11.9661C12.0426 11.538 11.8167 11.21 11.5519 10.8223V17.6142L6.89907 18.9435V6.17936L9.23637 5.51157C9.21597 5.12023 9.22551 4.97812 9.24622 4.70225L6.49811 5.48741L0.695312 4.24414V18.6079L6.52459 19.8571L11.9529 18.3062L17.7556 19.5494V10.8223C17.4908 11.2101 17.265 11.538 16.9802 11.9661ZM1.47078 5.20324L6.1236 6.20042V18.9779L1.47078 17.9808V5.20324Z" fill="url(#paint0_linear_1075_22163)"/>
<path d="M14.6528 0.143555C12.0645 0.143555 10 2.26512 10 4.79637C10 6.48007 10.6326 7.72152 11.5509 9.12105C12.5683 10.6716 13.0707 11.225 14.6528 13.9562C16.2341 11.2264 16.7351 10.675 17.7547 9.12105C18.6852 7.70291 19.3056 6.48092 19.3056 4.79637C19.3056 2.23085 17.2185 0.143555 14.6528 0.143555ZM14.6528 12.4206C13.3538 10.2654 12.2717 8.94866 11.5509 7.61904C10.9259 6.46588 10.5903 5.16282 10.879 3.9204C11.2777 2.20351 12.8166 0.919024 14.6528 0.919024C16.7907 0.919024 18.5302 2.65832 18.5302 4.79637C18.5302 5.86202 18.2407 6.72244 17.7547 7.61904C17.0316 8.95308 15.9546 10.2608 14.6528 12.4206Z" fill="url(#paint1_linear_1075_22163)"/>
<path d="M14.6535 3.17285C13.5507 3.17285 12.7148 4.10555 12.7148 5.11152C12.7148 6.18043 13.5846 7.0502 14.6535 7.0502C15.7901 7.0502 16.6793 6.05973 16.5741 4.93259C16.4822 3.94851 15.6612 3.17285 14.6535 3.17285ZM14.6535 6.27473C13.6491 6.27473 13.1199 5.0831 13.7925 4.33652C14.0056 4.1 14.3108 3.94832 14.6535 3.94832C15.473 3.94832 16.0352 4.79215 15.731 5.54517C15.5586 5.97202 15.1414 6.27473 14.6535 6.27473Z" fill="url(#paint2_linear_1075_22163)"/>
<defs>
<linearGradient id="paint0_linear_1075_22163" x1="0.695313" y1="12.0506" x2="17.7556" y2="12.0506" gradientUnits="userSpaceOnUse">
<stop stop-color="#002395"/>
<stop offset="1" stop-color="#FF0020"/>
</linearGradient>
<linearGradient id="paint1_linear_1075_22163" x1="10" y1="7.04988" x2="19.3056" y2="7.04988" gradientUnits="userSpaceOnUse">
<stop stop-color="#002395"/>
<stop offset="1" stop-color="#FF0020"/>
</linearGradient>
<linearGradient id="paint2_linear_1075_22163" x1="12.7148" y1="5.11152" x2="16.5826" y2="5.11152" gradientUnits="userSpaceOnUse">
<stop stop-color="#002395"/>
<stop offset="1" stop-color="#FF0020"/>
</linearGradient>
</defs>
</svg>
