<svg width="28" height="28" viewBox="0 0 28 28" fill="none" xmlns="http://www.w3.org/2000/svg">
<path d="M18.3238 15.5714C18.6437 15.7452 23.4294 16.9676 23.4294 19.8864C23.4294 21.8053 22.5103 23.5498 20.6716 24.0988C19.0829 24.5731 16.8406 25 14.0008 25C11.1609 25 8.91865 24.5732 7.33008 24.0988C5.49144 23.5498 4.57227 21.8053 4.57227 19.8864C4.57227 16.9616 9.36119 15.7431 9.67779 15.5714M14.0008 18.7143C17.538 18.7143 20.2866 13.3005 20.2866 7.75716C20.2866 5.17148 17.5191 3 14.0008 3C10.4826 3 7.71512 5.17148 7.71512 7.75716C7.71512 13.3005 10.4636 18.7143 14.0008 18.7143Z" stroke="#909090" stroke-width="1.5"/>
</svg>
